<mxfile host="drawio-plugin" modified="2022-11-11T05:42:27.904Z" agent="5.0 (Macintosh; Intel Mac OS X 11_7_0) AppleWebKit/537.36 (KHTML, like Gecko) Chrome/89.0.4389.114 Safari/537.36" etag="O9SsH0w78i-1l0dlQhzM" version="15.5.4" type="embed" pages="5"><diagram id="oGV0-PT3Lo7Y-eQq9xIC" name="Brain"><mxGraphModel dx="2639" dy="514" grid="1" gridSize="10" guides="1" tooltips="1" connect="1" arrows="1" fold="1" page="1" pageScale="1" pageWidth="1654" pageHeight="1169" math="0" shadow="0"><root><mxCell id="nnF_bCDVtsUWpY4CgaH9-0"/><mxCell id="nnF_bCDVtsUWpY4CgaH9-1" parent="nnF_bCDVtsUWpY4CgaH9-0"/><mxCell id="nnF_bCDVtsUWpY4CgaH9-2" value="" style="rounded=0;whiteSpace=wrap;html=1;fillColor=#fff2cc;strokeColor=#d6b656;" parent="nnF_bCDVtsUWpY4CgaH9-1" vertex="1"><mxGeometry x="-203.87" y="407.5" width="253.87" height="382.5" as="geometry"/></mxCell><mxCell id="nnF_bCDVtsUWpY4CgaH9-3" value="" style="edgeStyle=orthogonalEdgeStyle;rounded=0;orthogonalLoop=1;jettySize=auto;html=1;fontColor=#000000;" parent="nnF_bCDVtsUWpY4CgaH9-1" source="nnF_bCDVtsUWpY4CgaH9-4" target="nnF_bCDVtsUWpY4CgaH9-9" edge="1"><mxGeometry relative="1" as="geometry"/></mxCell><mxCell id="nnF_bCDVtsUWpY4CgaH9-4" value="&lt;font color=&quot;#000000&quot;&gt;DAG&lt;/font&gt;" style="shape=step;perimeter=stepPerimeter;whiteSpace=wrap;html=1;fixedSize=1;fillColor=#d5e8d4;strokeColor=#82b366;" parent="nnF_bCDVtsUWpY4CgaH9-1" vertex="1"><mxGeometry x="-380" y="290.5" width="120" height="80" as="geometry"/></mxCell><mxCell id="nnF_bCDVtsUWpY4CgaH9-5" style="edgeStyle=orthogonalEdgeStyle;rounded=0;orthogonalLoop=1;jettySize=auto;html=1;entryX=0;entryY=0.5;entryDx=0;entryDy=0;entryPerimeter=0;fontColor=#000000;exitX=1;exitY=0.5;exitDx=0;exitDy=0;exitPerimeter=0;" parent="nnF_bCDVtsUWpY4CgaH9-1" source="nnF_bCDVtsUWpY4CgaH9-59" target="nnF_bCDVtsUWpY4CgaH9-7" edge="1"><mxGeometry relative="1" as="geometry"><mxPoint x="-98" y="615" as="sourcePoint"/></mxGeometry></mxCell><mxCell id="nnF_bCDVtsUWpY4CgaH9-6" style="edgeStyle=orthogonalEdgeStyle;rounded=0;orthogonalLoop=1;jettySize=auto;html=1;entryX=0.5;entryY=1;entryDx=0;entryDy=0;" parent="nnF_bCDVtsUWpY4CgaH9-1" source="nnF_bCDVtsUWpY4CgaH9-7" target="nnF_bCDVtsUWpY4CgaH9-67" edge="1"><mxGeometry relative="1" as="geometry"><mxPoint x="190" y="370" as="targetPoint"/></mxGeometry></mxCell><mxCell id="nnF_bCDVtsUWpY4CgaH9-7" value="BrainImageClassificationEvent" style="verticalLabelPosition=bottom;html=1;verticalAlign=top;align=center;strokeColor=none;fillColor=#00BEF2;shape=mxgraph.azure.queue_generic;pointerEvents=1;" parent="nnF_bCDVtsUWpY4CgaH9-1" vertex="1"><mxGeometry x="-49" y="607.5" width="50" height="15" as="geometry"/></mxCell><mxCell id="nnF_bCDVtsUWpY4CgaH9-8" style="edgeStyle=orthogonalEdgeStyle;rounded=0;orthogonalLoop=1;jettySize=auto;html=1;" parent="nnF_bCDVtsUWpY4CgaH9-1" source="nnF_bCDVtsUWpY4CgaH9-9" target="nnF_bCDVtsUWpY4CgaH9-67" edge="1"><mxGeometry relative="1" as="geometry"/></mxCell><mxCell id="nnF_bCDVtsUWpY4CgaH9-9" value="BrainFeatureEvent" style="verticalLabelPosition=bottom;html=1;verticalAlign=top;align=center;strokeColor=none;fillColor=#00BEF2;shape=mxgraph.azure.queue_generic;pointerEvents=1;" parent="nnF_bCDVtsUWpY4CgaH9-1" vertex="1"><mxGeometry x="-80" y="323" width="50" height="15" as="geometry"/></mxCell><mxCell id="nnF_bCDVtsUWpY4CgaH9-10" style="edgeStyle=orthogonalEdgeStyle;rounded=0;orthogonalLoop=1;jettySize=auto;html=1;entryX=0;entryY=0.5;entryDx=0;entryDy=0;entryPerimeter=0;fontColor=#000000;exitX=1;exitY=0.5;exitDx=0;exitDy=0;exitPerimeter=0;" parent="nnF_bCDVtsUWpY4CgaH9-1" source="nnF_bCDVtsUWpY4CgaH9-60" target="nnF_bCDVtsUWpY4CgaH9-12" edge="1"><mxGeometry relative="1" as="geometry"><mxPoint x="-70" y="741" as="sourcePoint"/></mxGeometry></mxCell><mxCell id="nnF_bCDVtsUWpY4CgaH9-11" style="edgeStyle=orthogonalEdgeStyle;rounded=0;orthogonalLoop=1;jettySize=auto;html=1;entryX=0.5;entryY=1;entryDx=0;entryDy=0;" parent="nnF_bCDVtsUWpY4CgaH9-1" source="nnF_bCDVtsUWpY4CgaH9-12" target="nnF_bCDVtsUWpY4CgaH9-67" edge="1"><mxGeometry relative="1" as="geometry"/></mxCell><mxCell id="nnF_bCDVtsUWpY4CgaH9-12" value="BrainClassificationEvent" style="verticalLabelPosition=bottom;html=1;verticalAlign=top;align=center;strokeColor=none;fillColor=#00BEF2;shape=mxgraph.azure.queue_generic;pointerEvents=1;" parent="nnF_bCDVtsUWpY4CgaH9-1" vertex="1"><mxGeometry x="-12" y="733.5" width="50" height="15" as="geometry"/></mxCell><mxCell id="nnF_bCDVtsUWpY4CgaH9-13" style="edgeStyle=orthogonalEdgeStyle;rounded=0;orthogonalLoop=1;jettySize=auto;html=1;entryX=0;entryY=0.5;entryDx=0;entryDy=0;entryPerimeter=0;fontColor=#000000;" parent="nnF_bCDVtsUWpY4CgaH9-1" source="nnF_bCDVtsUWpY4CgaH9-14" target="nnF_bCDVtsUWpY4CgaH9-24" edge="1"><mxGeometry relative="1" as="geometry"/></mxCell><mxCell id="nnF_bCDVtsUWpY4CgaH9-14" value="Feature Lake" style="rounded=1;whiteSpace=wrap;html=1;fillColor=#dae8fc;strokeColor=#6c8ebf;" parent="nnF_bCDVtsUWpY4CgaH9-1" vertex="1"><mxGeometry x="330" y="60" width="120" height="60" as="geometry"/></mxCell><mxCell id="nnF_bCDVtsUWpY4CgaH9-15" style="edgeStyle=orthogonalEdgeStyle;rounded=0;orthogonalLoop=1;jettySize=auto;html=1;entryX=0;entryY=0.5;entryDx=0;entryDy=0;entryPerimeter=0;fontColor=#000000;" parent="nnF_bCDVtsUWpY4CgaH9-1" source="nnF_bCDVtsUWpY4CgaH9-16" target="nnF_bCDVtsUWpY4CgaH9-28" edge="1"><mxGeometry relative="1" as="geometry"/></mxCell><mxCell id="nnF_bCDVtsUWpY4CgaH9-16" value="Inference Lake" style="rounded=1;whiteSpace=wrap;html=1;fillColor=#dae8fc;strokeColor=#6c8ebf;" parent="nnF_bCDVtsUWpY4CgaH9-1" vertex="1"><mxGeometry x="330" y="585" width="120" height="60" as="geometry"/></mxCell><mxCell id="nnF_bCDVtsUWpY4CgaH9-17" value="&lt;h1&gt;Inference Lake&lt;/h1&gt;&lt;p&gt;&lt;/p&gt;&lt;ul&gt;&lt;li&gt;Input Data or reference&lt;/li&gt;&lt;li&gt;Model id &amp;amp; Version&lt;/li&gt;&lt;li&gt;Pre processor and Post processor config&lt;/li&gt;&lt;li&gt;Inference quantity&lt;/li&gt;&lt;/ul&gt;&lt;p&gt;&lt;/p&gt;" style="text;html=1;strokeColor=none;fillColor=none;spacing=5;spacingTop=-20;whiteSpace=wrap;overflow=hidden;rounded=0;fontColor=#000000;" parent="nnF_bCDVtsUWpY4CgaH9-1" vertex="1"><mxGeometry x="450" y="451" width="230" height="120" as="geometry"/></mxCell><mxCell id="nnF_bCDVtsUWpY4CgaH9-18" style="edgeStyle=orthogonalEdgeStyle;rounded=0;orthogonalLoop=1;jettySize=auto;html=1;entryX=0;entryY=0.5;entryDx=0;entryDy=0;entryPerimeter=0;fontColor=#000000;" parent="nnF_bCDVtsUWpY4CgaH9-1" source="nnF_bCDVtsUWpY4CgaH9-20" target="nnF_bCDVtsUWpY4CgaH9-32" edge="1"><mxGeometry relative="1" as="geometry"/></mxCell><mxCell id="nnF_bCDVtsUWpY4CgaH9-19" style="edgeStyle=orthogonalEdgeStyle;rounded=0;orthogonalLoop=1;jettySize=auto;html=1;entryX=0;entryY=0.5;entryDx=0;entryDy=0;entryPerimeter=0;fontColor=#000000;" parent="nnF_bCDVtsUWpY4CgaH9-1" source="nnF_bCDVtsUWpY4CgaH9-20" target="nnF_bCDVtsUWpY4CgaH9-34" edge="1"><mxGeometry relative="1" as="geometry"><Array as="points"><mxPoint x="710" y="533"/><mxPoint x="880" y="533"/></Array></mxGeometry></mxCell><mxCell id="nnF_bCDVtsUWpY4CgaH9-20" value="Function Resolver" style="rounded=1;whiteSpace=wrap;html=1;fillColor=#dae8fc;strokeColor=#6c8ebf;" parent="nnF_bCDVtsUWpY4CgaH9-1" vertex="1"><mxGeometry x="614" y="300" width="120" height="60" as="geometry"/></mxCell><mxCell id="nnF_bCDVtsUWpY4CgaH9-21" style="edgeStyle=orthogonalEdgeStyle;rounded=0;orthogonalLoop=1;jettySize=auto;html=1;entryX=0;entryY=0.5;entryDx=0;entryDy=0;entryPerimeter=0;fontColor=#000000;" parent="nnF_bCDVtsUWpY4CgaH9-1" source="nnF_bCDVtsUWpY4CgaH9-22" target="nnF_bCDVtsUWpY4CgaH9-26" edge="1"><mxGeometry relative="1" as="geometry"/></mxCell><mxCell id="nnF_bCDVtsUWpY4CgaH9-22" value="Knowledge Lake" style="rounded=1;whiteSpace=wrap;html=1;fillColor=#dae8fc;strokeColor=#6c8ebf;" parent="nnF_bCDVtsUWpY4CgaH9-1" vertex="1"><mxGeometry x="330" y="300" width="120" height="60" as="geometry"/></mxCell><mxCell id="nnF_bCDVtsUWpY4CgaH9-23" style="edgeStyle=orthogonalEdgeStyle;rounded=0;orthogonalLoop=1;jettySize=auto;html=1;fontColor=#000000;" parent="nnF_bCDVtsUWpY4CgaH9-1" source="nnF_bCDVtsUWpY4CgaH9-24" target="nnF_bCDVtsUWpY4CgaH9-20" edge="1"><mxGeometry relative="1" as="geometry"/></mxCell><mxCell id="nnF_bCDVtsUWpY4CgaH9-24" value="FeatureUpdateEvent" style="verticalLabelPosition=bottom;html=1;verticalAlign=top;align=center;strokeColor=none;fillColor=#00BEF2;shape=mxgraph.azure.queue_generic;pointerEvents=1;" parent="nnF_bCDVtsUWpY4CgaH9-1" vertex="1"><mxGeometry x="504" y="82.5" width="50" height="15" as="geometry"/></mxCell><mxCell id="nnF_bCDVtsUWpY4CgaH9-25" style="edgeStyle=orthogonalEdgeStyle;rounded=0;orthogonalLoop=1;jettySize=auto;html=1;entryX=0;entryY=0.5;entryDx=0;entryDy=0;fontColor=#000000;" parent="nnF_bCDVtsUWpY4CgaH9-1" source="nnF_bCDVtsUWpY4CgaH9-26" target="nnF_bCDVtsUWpY4CgaH9-20" edge="1"><mxGeometry relative="1" as="geometry"/></mxCell><mxCell id="nnF_bCDVtsUWpY4CgaH9-26" value="KnowledgeUpdateEvent" style="verticalLabelPosition=bottom;html=1;verticalAlign=top;align=center;strokeColor=none;fillColor=#00BEF2;shape=mxgraph.azure.queue_generic;pointerEvents=1;" parent="nnF_bCDVtsUWpY4CgaH9-1" vertex="1"><mxGeometry x="504" y="322.5" width="50" height="15" as="geometry"/></mxCell><mxCell id="nnF_bCDVtsUWpY4CgaH9-27" style="edgeStyle=orthogonalEdgeStyle;rounded=0;orthogonalLoop=1;jettySize=auto;html=1;entryX=0.5;entryY=1;entryDx=0;entryDy=0;" parent="nnF_bCDVtsUWpY4CgaH9-1" source="nnF_bCDVtsUWpY4CgaH9-28" target="nnF_bCDVtsUWpY4CgaH9-20" edge="1"><mxGeometry relative="1" as="geometry"><Array as="points"><mxPoint x="674" y="615"/></Array></mxGeometry></mxCell><mxCell id="nnF_bCDVtsUWpY4CgaH9-28" value="InferenceUpdateEvent" style="verticalLabelPosition=bottom;html=1;verticalAlign=top;align=center;strokeColor=none;fillColor=#00BEF2;shape=mxgraph.azure.queue_generic;pointerEvents=1;" parent="nnF_bCDVtsUWpY4CgaH9-1" vertex="1"><mxGeometry x="504" y="607.5" width="50" height="15" as="geometry"/></mxCell><mxCell id="nnF_bCDVtsUWpY4CgaH9-29" style="edgeStyle=orthogonalEdgeStyle;rounded=0;orthogonalLoop=1;jettySize=auto;html=1;entryX=0.5;entryY=0;entryDx=0;entryDy=0;entryPerimeter=0;fontColor=#000000;" parent="nnF_bCDVtsUWpY4CgaH9-1" source="nnF_bCDVtsUWpY4CgaH9-30" target="nnF_bCDVtsUWpY4CgaH9-34" edge="1"><mxGeometry relative="1" as="geometry"/></mxCell><mxCell id="nnF_bCDVtsUWpY4CgaH9-30" value="Feature Resolver" style="rounded=1;whiteSpace=wrap;html=1;fillColor=#dae8fc;strokeColor=#6c8ebf;" parent="nnF_bCDVtsUWpY4CgaH9-1" vertex="1"><mxGeometry x="901" y="300" width="120" height="60" as="geometry"/></mxCell><mxCell id="nnF_bCDVtsUWpY4CgaH9-31" style="edgeStyle=orthogonalEdgeStyle;rounded=0;orthogonalLoop=1;jettySize=auto;html=1;entryX=0;entryY=0.5;entryDx=0;entryDy=0;fontColor=#000000;" parent="nnF_bCDVtsUWpY4CgaH9-1" source="nnF_bCDVtsUWpY4CgaH9-32" target="nnF_bCDVtsUWpY4CgaH9-30" edge="1"><mxGeometry relative="1" as="geometry"/></mxCell><mxCell id="nnF_bCDVtsUWpY4CgaH9-32" value="FunctionPopulateEvent" style="verticalLabelPosition=bottom;html=1;verticalAlign=top;align=center;strokeColor=none;fillColor=#00BEF2;shape=mxgraph.azure.queue_generic;pointerEvents=1;" parent="nnF_bCDVtsUWpY4CgaH9-1" vertex="1"><mxGeometry x="800" y="322.5" width="50" height="15" as="geometry"/></mxCell><mxCell id="nnF_bCDVtsUWpY4CgaH9-33" style="edgeStyle=orthogonalEdgeStyle;rounded=0;orthogonalLoop=1;jettySize=auto;html=1;entryX=1;entryY=0.5;entryDx=0;entryDy=0;fontColor=#000000;" parent="nnF_bCDVtsUWpY4CgaH9-1" source="nnF_bCDVtsUWpY4CgaH9-34" target="nnF_bCDVtsUWpY4CgaH9-41" edge="1"><mxGeometry relative="1" as="geometry"><Array as="points"><mxPoint x="1041" y="533"/><mxPoint x="1041" y="817"/></Array></mxGeometry></mxCell><mxCell id="nnF_bCDVtsUWpY4CgaH9-34" value="BrainEvent" style="verticalLabelPosition=bottom;html=1;verticalAlign=top;align=center;strokeColor=none;fillColor=#00BEF2;shape=mxgraph.azure.queue_generic;pointerEvents=1;" parent="nnF_bCDVtsUWpY4CgaH9-1" vertex="1"><mxGeometry x="936" y="525" width="50" height="15" as="geometry"/></mxCell><mxCell id="nnF_bCDVtsUWpY4CgaH9-35" value="Knowledge Lake" style="shape=cylinder3;whiteSpace=wrap;html=1;boundedLbl=1;backgroundOutline=1;size=15;fontColor=#000000;" parent="nnF_bCDVtsUWpY4CgaH9-1" vertex="1"><mxGeometry x="923" y="170" width="60" height="80" as="geometry"/></mxCell><mxCell id="nnF_bCDVtsUWpY4CgaH9-36" value="Feature Lake" style="shape=cylinder3;whiteSpace=wrap;html=1;boundedLbl=1;backgroundOutline=1;size=15;fontColor=#000000;" parent="nnF_bCDVtsUWpY4CgaH9-1" vertex="1"><mxGeometry x="993" y="170" width="60" height="80" as="geometry"/></mxCell><mxCell id="nnF_bCDVtsUWpY4CgaH9-37" value="" style="shape=flexArrow;endArrow=classic;html=1;rounded=0;fontColor=#000000;entryX=0.5;entryY=1;entryDx=0;entryDy=0;entryPerimeter=0;" parent="nnF_bCDVtsUWpY4CgaH9-1" edge="1"><mxGeometry width="50" height="50" relative="1" as="geometry"><mxPoint x="920" y="295" as="sourcePoint"/><mxPoint x="920" y="255" as="targetPoint"/></mxGeometry></mxCell><mxCell id="nnF_bCDVtsUWpY4CgaH9-38" value="" style="shape=flexArrow;endArrow=classic;html=1;rounded=0;fontColor=#000000;entryX=0.5;entryY=1;entryDx=0;entryDy=0;entryPerimeter=0;" parent="nnF_bCDVtsUWpY4CgaH9-1" edge="1"><mxGeometry width="50" height="50" relative="1" as="geometry"><mxPoint x="989" y="294" as="sourcePoint"/><mxPoint x="989" y="254" as="targetPoint"/></mxGeometry></mxCell><mxCell id="nnF_bCDVtsUWpY4CgaH9-39" style="edgeStyle=orthogonalEdgeStyle;rounded=0;orthogonalLoop=1;jettySize=auto;html=1;entryX=0;entryY=0.5;entryDx=0;entryDy=0;entryPerimeter=0;fontColor=#000000;" parent="nnF_bCDVtsUWpY4CgaH9-1" source="nnF_bCDVtsUWpY4CgaH9-41" target="nnF_bCDVtsUWpY4CgaH9-48" edge="1"><mxGeometry relative="1" as="geometry"/></mxCell><mxCell id="nnF_bCDVtsUWpY4CgaH9-40" style="edgeStyle=orthogonalEdgeStyle;rounded=0;orthogonalLoop=1;jettySize=auto;html=1;entryX=0;entryY=0.5;entryDx=0;entryDy=0;entryPerimeter=0;fontColor=#000000;" parent="nnF_bCDVtsUWpY4CgaH9-1" source="nnF_bCDVtsUWpY4CgaH9-41" target="nnF_bCDVtsUWpY4CgaH9-46" edge="1"><mxGeometry relative="1" as="geometry"><Array as="points"><mxPoint x="-370" y="817"/><mxPoint x="-370" y="615"/></Array></mxGeometry></mxCell><mxCell id="nnF_bCDVtsUWpY4CgaH9-41" value="Function Router" style="rounded=1;whiteSpace=wrap;html=1;fillColor=#dae8fc;strokeColor=#6c8ebf;" parent="nnF_bCDVtsUWpY4CgaH9-1" vertex="1"><mxGeometry x="645" y="786.5" width="120" height="60" as="geometry"/></mxCell><mxCell id="nnF_bCDVtsUWpY4CgaH9-42" value="Function Schema" style="shape=note;whiteSpace=wrap;html=1;backgroundOutline=1;darkOpacity=0.05;fontColor=#000000;" parent="nnF_bCDVtsUWpY4CgaH9-1" vertex="1"><mxGeometry x="690" y="260" width="80" height="52.5" as="geometry"/></mxCell><mxCell id="nnF_bCDVtsUWpY4CgaH9-43" value="Function Schema" style="shape=note;whiteSpace=wrap;html=1;backgroundOutline=1;darkOpacity=0.05;fontColor=#000000;" parent="nnF_bCDVtsUWpY4CgaH9-1" vertex="1"><mxGeometry x="600" y="752.75" width="80" height="52.5" as="geometry"/></mxCell><mxCell id="nnF_bCDVtsUWpY4CgaH9-44" value="Function Schema" style="shape=note;whiteSpace=wrap;html=1;backgroundOutline=1;darkOpacity=0.05;fontColor=#000000;" parent="nnF_bCDVtsUWpY4CgaH9-1" vertex="1"><mxGeometry x="1000" y="340" width="80" height="52.5" as="geometry"/></mxCell><mxCell id="nnF_bCDVtsUWpY4CgaH9-45" style="edgeStyle=orthogonalEdgeStyle;rounded=0;orthogonalLoop=1;jettySize=auto;html=1;entryX=0;entryY=0.5;entryDx=0;entryDy=0;fontColor=#000000;entryPerimeter=0;" parent="nnF_bCDVtsUWpY4CgaH9-1" source="nnF_bCDVtsUWpY4CgaH9-46" target="nnF_bCDVtsUWpY4CgaH9-59" edge="1"><mxGeometry relative="1" as="geometry"><mxPoint x="-198" y="615" as="targetPoint"/></mxGeometry></mxCell><mxCell id="nnF_bCDVtsUWpY4CgaH9-46" value="BrainImageEvent" style="verticalLabelPosition=bottom;html=1;verticalAlign=top;align=center;strokeColor=none;fillColor=#00BEF2;shape=mxgraph.azure.queue_generic;pointerEvents=1;" parent="nnF_bCDVtsUWpY4CgaH9-1" vertex="1"><mxGeometry x="-285" y="607.5" width="50" height="15" as="geometry"/></mxCell><mxCell id="nnF_bCDVtsUWpY4CgaH9-47" style="edgeStyle=orthogonalEdgeStyle;rounded=0;orthogonalLoop=1;jettySize=auto;html=1;fontColor=#000000;entryX=0;entryY=0.5;entryDx=0;entryDy=0;entryPerimeter=0;" parent="nnF_bCDVtsUWpY4CgaH9-1" source="nnF_bCDVtsUWpY4CgaH9-48" target="nnF_bCDVtsUWpY4CgaH9-60" edge="1"><mxGeometry relative="1" as="geometry"><mxPoint x="-170" y="741" as="targetPoint"/></mxGeometry></mxCell><mxCell id="nnF_bCDVtsUWpY4CgaH9-48" value="BrainMultivariateEvent" style="verticalLabelPosition=bottom;html=1;verticalAlign=top;align=center;strokeColor=none;fillColor=#00BEF2;shape=mxgraph.azure.queue_generic;pointerEvents=1;" parent="nnF_bCDVtsUWpY4CgaH9-1" vertex="1"><mxGeometry x="-266" y="733.5" width="50" height="15" as="geometry"/></mxCell><mxCell id="nnF_bCDVtsUWpY4CgaH9-49" value="&lt;h1&gt;Execution Frequency&lt;/h1&gt;&lt;p&gt;&lt;/p&gt;&lt;ul&gt;&lt;li&gt;Feature Frequency&lt;/li&gt;&lt;li&gt;Real time for function&lt;/li&gt;&lt;li&gt;Function config driven&lt;/li&gt;&lt;/ul&gt;&lt;p&gt;&lt;/p&gt;" style="text;html=1;strokeColor=none;fillColor=none;spacing=5;spacingTop=-20;whiteSpace=wrap;overflow=hidden;rounded=0;fontColor=#000000;" parent="nnF_bCDVtsUWpY4CgaH9-1" vertex="1"><mxGeometry x="711" y="40" width="299" height="150" as="geometry"/></mxCell><mxCell id="nnF_bCDVtsUWpY4CgaH9-50" value="Inference Lake" style="shape=cylinder3;whiteSpace=wrap;html=1;boundedLbl=1;backgroundOutline=1;size=15;fontColor=#000000;" parent="nnF_bCDVtsUWpY4CgaH9-1" vertex="1"><mxGeometry x="853" y="170" width="60" height="80" as="geometry"/></mxCell><mxCell id="nnF_bCDVtsUWpY4CgaH9-51" style="edgeStyle=orthogonalEdgeStyle;rounded=0;orthogonalLoop=1;jettySize=auto;html=1;entryX=0;entryY=0.5;entryDx=0;entryDy=0;entryPerimeter=0;" parent="nnF_bCDVtsUWpY4CgaH9-1" source="nnF_bCDVtsUWpY4CgaH9-52" target="nnF_bCDVtsUWpY4CgaH9-54" edge="1"><mxGeometry relative="1" as="geometry"/></mxCell><mxCell id="nnF_bCDVtsUWpY4CgaH9-52" value="Azure Content Ingestion" style="aspect=fixed;perimeter=ellipsePerimeter;html=1;align=center;shadow=0;dashed=0;spacingTop=3;image;image=img/lib/active_directory/database_server.svg;" parent="nnF_bCDVtsUWpY4CgaH9-1" vertex="1"><mxGeometry x="-312" y="450" width="65.6" height="80" as="geometry"/></mxCell><mxCell id="nnF_bCDVtsUWpY4CgaH9-53" style="edgeStyle=orthogonalEdgeStyle;rounded=0;orthogonalLoop=1;jettySize=auto;html=1;" parent="nnF_bCDVtsUWpY4CgaH9-1" source="nnF_bCDVtsUWpY4CgaH9-54" target="nnF_bCDVtsUWpY4CgaH9-56" edge="1"><mxGeometry relative="1" as="geometry"/></mxCell><mxCell id="nnF_bCDVtsUWpY4CgaH9-54" value="Content Updates" style="verticalLabelPosition=bottom;html=1;verticalAlign=top;align=center;strokeColor=none;fillColor=#00BEF2;shape=mxgraph.azure.queue_generic;pointerEvents=1;" parent="nnF_bCDVtsUWpY4CgaH9-1" vertex="1"><mxGeometry x="-220.49999999999997" y="482.5" width="50" height="15" as="geometry"/></mxCell><mxCell id="nnF_bCDVtsUWpY4CgaH9-55" style="edgeStyle=orthogonalEdgeStyle;rounded=0;orthogonalLoop=1;jettySize=auto;html=1;entryX=0;entryY=0.5;entryDx=0;entryDy=0;entryPerimeter=0;" parent="nnF_bCDVtsUWpY4CgaH9-1" source="nnF_bCDVtsUWpY4CgaH9-56" target="nnF_bCDVtsUWpY4CgaH9-58" edge="1"><mxGeometry relative="1" as="geometry"/></mxCell><mxCell id="nnF_bCDVtsUWpY4CgaH9-56" value="Interpretation Bridge" style="sketch=0;points=[[0,0,0],[0.25,0,0],[0.5,0,0],[0.75,0,0],[1,0,0],[0,1,0],[0.25,1,0],[0.5,1,0],[0.75,1,0],[1,1,0],[0,0.25,0],[0,0.5,0],[0,0.75,0],[1,0.25,0],[1,0.5,0],[1,0.75,0]];outlineConnect=0;fontColor=#232F3E;gradientColor=#4AB29A;gradientDirection=north;fillColor=#116D5B;strokeColor=#ffffff;dashed=0;verticalLabelPosition=bottom;verticalAlign=top;align=center;html=1;fontSize=12;fontStyle=0;aspect=fixed;shape=mxgraph.aws4.resourceIcon;resIcon=mxgraph.aws4.codeguru_2;" parent="nnF_bCDVtsUWpY4CgaH9-1" vertex="1"><mxGeometry x="-128.49999999999997" y="451" width="78" height="78" as="geometry"/></mxCell><mxCell id="nnF_bCDVtsUWpY4CgaH9-57" style="edgeStyle=orthogonalEdgeStyle;rounded=0;orthogonalLoop=1;jettySize=auto;html=1;entryX=0.5;entryY=1;entryDx=0;entryDy=0;" parent="nnF_bCDVtsUWpY4CgaH9-1" source="nnF_bCDVtsUWpY4CgaH9-58" target="nnF_bCDVtsUWpY4CgaH9-67" edge="1"><mxGeometry relative="1" as="geometry"><Array as="points"><mxPoint x="110" y="490"/></Array></mxGeometry></mxCell><mxCell id="nnF_bCDVtsUWpY4CgaH9-58" value="BrainImageClassificationEvent" style="verticalLabelPosition=bottom;html=1;verticalAlign=top;align=center;strokeColor=none;fillColor=#00BEF2;shape=mxgraph.azure.queue_generic;pointerEvents=1;" parent="nnF_bCDVtsUWpY4CgaH9-1" vertex="1"><mxGeometry x="17" y="482.5" width="50" height="15" as="geometry"/></mxCell><mxCell id="nnF_bCDVtsUWpY4CgaH9-59" value="DL Model" style="sketch=0;points=[[0,0,0],[0.25,0,0],[0.5,0,0],[0.75,0,0],[1,0,0],[0,1,0],[0.25,1,0],[0.5,1,0],[0.75,1,0],[1,1,0],[0,0.25,0],[0,0.5,0],[0,0.75,0],[1,0.25,0],[1,0.5,0],[1,0.75,0]];outlineConnect=0;fontColor=#232F3E;gradientColor=#4AB29A;gradientDirection=north;fillColor=#116D5B;strokeColor=#ffffff;dashed=0;verticalLabelPosition=bottom;verticalAlign=top;align=center;html=1;fontSize=12;fontStyle=0;aspect=fixed;shape=mxgraph.aws4.resourceIcon;resIcon=mxgraph.aws4.machine_learning;" parent="nnF_bCDVtsUWpY4CgaH9-1" vertex="1"><mxGeometry x="-159.25000000000003" y="599.63" width="30.75" height="30.75" as="geometry"/></mxCell><mxCell id="nnF_bCDVtsUWpY4CgaH9-60" value="ML Model" style="sketch=0;points=[[0,0,0],[0.25,0,0],[0.5,0,0],[0.75,0,0],[1,0,0],[0,1,0],[0.25,1,0],[0.5,1,0],[0.75,1,0],[1,1,0],[0,0.25,0],[0,0.5,0],[0,0.75,0],[1,0.25,0],[1,0.5,0],[1,0.75,0]];outlineConnect=0;fontColor=#232F3E;gradientColor=#4AB29A;gradientDirection=north;fillColor=#116D5B;strokeColor=#ffffff;dashed=0;verticalLabelPosition=bottom;verticalAlign=top;align=center;html=1;fontSize=12;fontStyle=0;aspect=fixed;shape=mxgraph.aws4.resourceIcon;resIcon=mxgraph.aws4.machine_learning;" parent="nnF_bCDVtsUWpY4CgaH9-1" vertex="1"><mxGeometry x="-134.99999999999997" y="725.63" width="30.75" height="30.75" as="geometry"/></mxCell><mxCell id="nnF_bCDVtsUWpY4CgaH9-61" value="&lt;h1&gt;Function Router&lt;/h1&gt;&lt;p&gt;&lt;/p&gt;&lt;ul&gt;&lt;li&gt;Identify which topic this event need to be routed&lt;/li&gt;&lt;li&gt;Send event to identified topic&lt;/li&gt;&lt;/ul&gt;&lt;p&gt;&lt;/p&gt;" style="text;html=1;strokeColor=none;fillColor=none;spacing=5;spacingTop=-20;whiteSpace=wrap;overflow=hidden;rounded=0;fontColor=#000000;" parent="nnF_bCDVtsUWpY4CgaH9-1" vertex="1"><mxGeometry x="699" y="687" width="230" height="120" as="geometry"/></mxCell><mxCell id="nnF_bCDVtsUWpY4CgaH9-62" value="&lt;h1&gt;Feature Resolver&lt;/h1&gt;&lt;p&gt;&lt;/p&gt;&lt;ul&gt;&lt;li&gt;&lt;span&gt;Get all required dependent data that is needed to execute next function&lt;/span&gt;&lt;/li&gt;&lt;li&gt;&lt;span&gt;Create event for that data&lt;/span&gt;&lt;br&gt;&lt;/li&gt;&lt;/ul&gt;&lt;p&gt;&lt;/p&gt;" style="text;html=1;strokeColor=none;fillColor=none;spacing=5;spacingTop=-20;whiteSpace=wrap;overflow=hidden;rounded=0;fontColor=#000000;" parent="nnF_bCDVtsUWpY4CgaH9-1" vertex="1"><mxGeometry x="745.5" y="377.5" width="230" height="120" as="geometry"/></mxCell><mxCell id="nnF_bCDVtsUWpY4CgaH9-63" value="&lt;h1&gt;Function Resolver&lt;/h1&gt;&lt;p&gt;&lt;/p&gt;&lt;ul&gt;&lt;li&gt;&lt;span&gt;From updates from knowledge lake, feature lake and Inference lake find out what dependent function is needed to invoke&lt;/span&gt;&lt;/li&gt;&lt;li&gt;&lt;span&gt;Send only required data for next layer&lt;/span&gt;&lt;br&gt;&lt;/li&gt;&lt;/ul&gt;&lt;p&gt;&lt;/p&gt;" style="text;html=1;strokeColor=none;fillColor=none;spacing=5;spacingTop=-20;whiteSpace=wrap;overflow=hidden;rounded=0;fontColor=#000000;" parent="nnF_bCDVtsUWpY4CgaH9-1" vertex="1"><mxGeometry x="429" y="170" width="230" height="140" as="geometry"/></mxCell><mxCell id="nnF_bCDVtsUWpY4CgaH9-64" style="edgeStyle=orthogonalEdgeStyle;rounded=0;orthogonalLoop=1;jettySize=auto;html=1;entryX=0;entryY=0.5;entryDx=0;entryDy=0;entryPerimeter=0;" parent="nnF_bCDVtsUWpY4CgaH9-1" source="nnF_bCDVtsUWpY4CgaH9-67" target="nnF_bCDVtsUWpY4CgaH9-71" edge="1"><mxGeometry relative="1" as="geometry"/></mxCell><mxCell id="nnF_bCDVtsUWpY4CgaH9-65" style="edgeStyle=orthogonalEdgeStyle;rounded=0;orthogonalLoop=1;jettySize=auto;html=1;entryX=0;entryY=0.5;entryDx=0;entryDy=0;entryPerimeter=0;" parent="nnF_bCDVtsUWpY4CgaH9-1" source="nnF_bCDVtsUWpY4CgaH9-67" target="nnF_bCDVtsUWpY4CgaH9-73" edge="1"><mxGeometry relative="1" as="geometry"><Array as="points"><mxPoint x="200" y="330"/><mxPoint x="200" y="615"/></Array></mxGeometry></mxCell><mxCell id="nnF_bCDVtsUWpY4CgaH9-66" style="edgeStyle=orthogonalEdgeStyle;rounded=0;orthogonalLoop=1;jettySize=auto;html=1;entryX=0;entryY=0.5;entryDx=0;entryDy=0;entryPerimeter=0;" parent="nnF_bCDVtsUWpY4CgaH9-1" source="nnF_bCDVtsUWpY4CgaH9-67" target="nnF_bCDVtsUWpY4CgaH9-69" edge="1"><mxGeometry relative="1" as="geometry"><Array as="points"><mxPoint x="200" y="330"/><mxPoint x="200" y="90"/></Array></mxGeometry></mxCell><mxCell id="nnF_bCDVtsUWpY4CgaH9-67" value="Repository Resolver" style="rounded=1;whiteSpace=wrap;html=1;fillColor=#dae8fc;strokeColor=#6c8ebf;" parent="nnF_bCDVtsUWpY4CgaH9-1" vertex="1"><mxGeometry x="50" y="300" width="120" height="60" as="geometry"/></mxCell><mxCell id="nnF_bCDVtsUWpY4CgaH9-68" style="edgeStyle=orthogonalEdgeStyle;rounded=0;orthogonalLoop=1;jettySize=auto;html=1;entryX=0;entryY=0.5;entryDx=0;entryDy=0;" parent="nnF_bCDVtsUWpY4CgaH9-1" source="nnF_bCDVtsUWpY4CgaH9-69" target="nnF_bCDVtsUWpY4CgaH9-14" edge="1"><mxGeometry relative="1" as="geometry"/></mxCell><mxCell id="nnF_bCDVtsUWpY4CgaH9-69" value="BrainFeatureEvent" style="verticalLabelPosition=bottom;html=1;verticalAlign=top;align=center;strokeColor=none;fillColor=#00BEF2;shape=mxgraph.azure.queue_generic;pointerEvents=1;" parent="nnF_bCDVtsUWpY4CgaH9-1" vertex="1"><mxGeometry x="250" y="82.5" width="50" height="15" as="geometry"/></mxCell><mxCell id="nnF_bCDVtsUWpY4CgaH9-70" style="edgeStyle=orthogonalEdgeStyle;rounded=0;orthogonalLoop=1;jettySize=auto;html=1;entryX=0;entryY=0.5;entryDx=0;entryDy=0;" parent="nnF_bCDVtsUWpY4CgaH9-1" source="nnF_bCDVtsUWpY4CgaH9-71" target="nnF_bCDVtsUWpY4CgaH9-22" edge="1"><mxGeometry relative="1" as="geometry"/></mxCell><mxCell id="nnF_bCDVtsUWpY4CgaH9-71" value="BrainKnowledgeEvent" style="verticalLabelPosition=bottom;html=1;verticalAlign=top;align=center;strokeColor=none;fillColor=#00BEF2;shape=mxgraph.azure.queue_generic;pointerEvents=1;" parent="nnF_bCDVtsUWpY4CgaH9-1" vertex="1"><mxGeometry x="241" y="322.5" width="50" height="15" as="geometry"/></mxCell><mxCell id="nnF_bCDVtsUWpY4CgaH9-72" style="edgeStyle=orthogonalEdgeStyle;rounded=0;orthogonalLoop=1;jettySize=auto;html=1;entryX=0;entryY=0.5;entryDx=0;entryDy=0;" parent="nnF_bCDVtsUWpY4CgaH9-1" source="nnF_bCDVtsUWpY4CgaH9-73" target="nnF_bCDVtsUWpY4CgaH9-16" edge="1"><mxGeometry relative="1" as="geometry"/></mxCell><mxCell id="nnF_bCDVtsUWpY4CgaH9-73" value="BrainInferenceEvent" style="verticalLabelPosition=bottom;html=1;verticalAlign=top;align=center;strokeColor=none;fillColor=#00BEF2;shape=mxgraph.azure.queue_generic;pointerEvents=1;" parent="nnF_bCDVtsUWpY4CgaH9-1" vertex="1"><mxGeometry x="240" y="607.5" width="50" height="15" as="geometry"/></mxCell><mxCell id="UUlhh4QEmbDiza8ZeBwi-0" value="Fliter" style="rounded=1;whiteSpace=wrap;html=1;" parent="nnF_bCDVtsUWpY4CgaH9-1" vertex="1"><mxGeometry x="-890" y="123.5" width="120" height="60" as="geometry"/></mxCell><mxCell id="UUlhh4QEmbDiza8ZeBwi-1" value="Quantise" style="rounded=1;whiteSpace=wrap;html=1;" parent="nnF_bCDVtsUWpY4CgaH9-1" vertex="1"><mxGeometry x="-890" y="203.5" width="120" height="60" as="geometry"/></mxCell><mxCell id="UUlhh4QEmbDiza8ZeBwi-2" value="Compute" style="rounded=1;whiteSpace=wrap;html=1;" parent="nnF_bCDVtsUWpY4CgaH9-1" vertex="1"><mxGeometry x="-890" y="283.5" width="120" height="60" as="geometry"/></mxCell><mxCell id="UUlhh4QEmbDiza8ZeBwi-3" value="Enrich" style="rounded=1;whiteSpace=wrap;html=1;" parent="nnF_bCDVtsUWpY4CgaH9-1" vertex="1"><mxGeometry x="-890" y="358.5" width="120" height="60" as="geometry"/></mxCell><mxCell id="UUlhh4QEmbDiza8ZeBwi-4" value="Pivot" style="rounded=1;whiteSpace=wrap;html=1;" parent="nnF_bCDVtsUWpY4CgaH9-1" vertex="1"><mxGeometry x="-890" y="433.5" width="120" height="60" as="geometry"/></mxCell><mxCell id="UUlhh4QEmbDiza8ZeBwi-5" value="Reduce" style="rounded=1;whiteSpace=wrap;html=1;" parent="nnF_bCDVtsUWpY4CgaH9-1" vertex="1"><mxGeometry x="-890" y="513.5" width="120" height="60" as="geometry"/></mxCell><mxCell id="UUlhh4QEmbDiza8ZeBwi-6" value="Joinner" style="rounded=1;whiteSpace=wrap;html=1;" parent="nnF_bCDVtsUWpY4CgaH9-1" vertex="1"><mxGeometry x="-890" y="593.5" width="120" height="60" as="geometry"/></mxCell><mxCell id="UUlhh4QEmbDiza8ZeBwi-7" value="Phase Correction" style="rounded=1;whiteSpace=wrap;html=1;" parent="nnF_bCDVtsUWpY4CgaH9-1" vertex="1"><mxGeometry x="-890" y="673.5" width="120" height="60" as="geometry"/></mxCell><mxCell id="N06aV3ZUR5uTHq1-6ftQ-1" style="edgeStyle=orthogonalEdgeStyle;rounded=0;orthogonalLoop=1;jettySize=auto;html=1;" parent="nnF_bCDVtsUWpY4CgaH9-1" source="N06aV3ZUR5uTHq1-6ftQ-0" target="nnF_bCDVtsUWpY4CgaH9-4" edge="1"><mxGeometry relative="1" as="geometry"/></mxCell><mxCell id="N06aV3ZUR5uTHq1-6ftQ-0" value="Source" style="shape=cylinder3;whiteSpace=wrap;html=1;boundedLbl=1;backgroundOutline=1;size=15;" parent="nnF_bCDVtsUWpY4CgaH9-1" vertex="1"><mxGeometry x="-510" y="290.5" width="60" height="80" as="geometry"/></mxCell></root></mxGraphModel></diagram><diagram id="T0WlNKa5_sLGF-qJ4mnb" name="Ingestion"><mxGraphModel dx="2889" dy="718" grid="1" gridSize="10" guides="1" tooltips="1" connect="1" arrows="1" fold="1" page="1" pageScale="1" pageWidth="1654" pageHeight="1169" math="0" shadow="0"><root><mxCell id="0"/><mxCell id="1" parent="0"/><mxCell id="i5EGGq2S-aJdO0vi_hII-7" value="BrainImagetEvent" style="verticalLabelPosition=bottom;html=1;verticalAlign=top;align=center;strokeColor=none;fillColor=#00BEF2;shape=mxgraph.azure.queue_generic;pointerEvents=1;" parent="1" vertex="1"><mxGeometry x="-740" y="92.5" width="50" height="15" as="geometry"/></mxCell><mxCell id="i5EGGq2S-aJdO0vi_hII-8" style="edgeStyle=orthogonalEdgeStyle;rounded=0;orthogonalLoop=1;jettySize=auto;html=1;entryX=0;entryY=0.5;entryDx=0;entryDy=0;" parent="1" source="i5EGGq2S-aJdO0vi_hII-9" target="i5EGGq2S-aJdO0vi_hII-11" edge="1"><mxGeometry relative="1" as="geometry"/></mxCell><mxCell id="i5EGGq2S-aJdO0vi_hII-9" value="Azure Bucket for Image" style="outlineConnect=0;dashed=0;verticalLabelPosition=bottom;verticalAlign=top;align=center;html=1;shape=mxgraph.aws3.bucket_with_objects;fillColor=#E05243;gradientColor=none;" parent="1" vertex="1"><mxGeometry x="-1120" y="69.25" width="60" height="61.5" as="geometry"/></mxCell><mxCell id="i5EGGq2S-aJdO0vi_hII-10" style="edgeStyle=orthogonalEdgeStyle;rounded=0;orthogonalLoop=1;jettySize=auto;html=1;entryX=0;entryY=0.5;entryDx=0;entryDy=0;entryPerimeter=0;" parent="1" source="i5EGGq2S-aJdO0vi_hII-11" target="i5EGGq2S-aJdO0vi_hII-7" edge="1"><mxGeometry relative="1" as="geometry"/></mxCell><mxCell id="i5EGGq2S-aJdO0vi_hII-11" value="Azure Connector" style="rounded=1;whiteSpace=wrap;html=1;fillColor=#dae8fc;strokeColor=#6c8ebf;" parent="1" vertex="1"><mxGeometry x="-960" y="70.75" width="120" height="60" as="geometry"/></mxCell><mxCell id="i5EGGq2S-aJdO0vi_hII-12" style="edgeStyle=orthogonalEdgeStyle;rounded=0;orthogonalLoop=1;jettySize=auto;html=1;entryX=0;entryY=0.5;entryDx=0;entryDy=0;" parent="1" source="i5EGGq2S-aJdO0vi_hII-13" target="i5EGGq2S-aJdO0vi_hII-26" edge="1"><mxGeometry relative="1" as="geometry"/></mxCell><mxCell id="i5EGGq2S-aJdO0vi_hII-13" value="Batch of Lines" style="verticalLabelPosition=bottom;html=1;verticalAlign=top;align=center;strokeColor=none;fillColor=#00BEF2;shape=mxgraph.azure.queue_generic;pointerEvents=1;" parent="1" vertex="1"><mxGeometry x="-740" y="243.25" width="50" height="15" as="geometry"/></mxCell><mxCell id="i5EGGq2S-aJdO0vi_hII-14" style="edgeStyle=orthogonalEdgeStyle;rounded=0;orthogonalLoop=1;jettySize=auto;html=1;entryX=0;entryY=0.5;entryDx=0;entryDy=0;" parent="1" source="i5EGGq2S-aJdO0vi_hII-15" target="i5EGGq2S-aJdO0vi_hII-17" edge="1"><mxGeometry relative="1" as="geometry"/></mxCell><mxCell id="i5EGGq2S-aJdO0vi_hII-15" value="Azure Bucket for CSV" style="outlineConnect=0;dashed=0;verticalLabelPosition=bottom;verticalAlign=top;align=center;html=1;shape=mxgraph.aws3.bucket_with_objects;fillColor=#E05243;gradientColor=none;" parent="1" vertex="1"><mxGeometry x="-1120" y="220" width="60" height="61.5" as="geometry"/></mxCell><mxCell id="i5EGGq2S-aJdO0vi_hII-16" style="edgeStyle=orthogonalEdgeStyle;rounded=0;orthogonalLoop=1;jettySize=auto;html=1;entryX=0;entryY=0.5;entryDx=0;entryDy=0;entryPerimeter=0;" parent="1" source="i5EGGq2S-aJdO0vi_hII-17" target="i5EGGq2S-aJdO0vi_hII-13" edge="1"><mxGeometry relative="1" as="geometry"/></mxCell><mxCell id="i5EGGq2S-aJdO0vi_hII-17" value="Azure Connector" style="rounded=1;whiteSpace=wrap;html=1;fillColor=#dae8fc;strokeColor=#6c8ebf;" parent="1" vertex="1"><mxGeometry x="-960" y="221.5" width="120" height="60" as="geometry"/></mxCell><mxCell id="i5EGGq2S-aJdO0vi_hII-18" style="edgeStyle=orthogonalEdgeStyle;rounded=0;orthogonalLoop=1;jettySize=auto;html=1;entryX=0;entryY=0.5;entryDx=0;entryDy=0;" parent="1" source="i5EGGq2S-aJdO0vi_hII-19" target="i5EGGq2S-aJdO0vi_hII-23" edge="1"><mxGeometry relative="1" as="geometry"/></mxCell><mxCell id="i5EGGq2S-aJdO0vi_hII-19" value="Kafka Input Topic" style="verticalLabelPosition=bottom;html=1;verticalAlign=top;align=center;strokeColor=none;fillColor=#00BEF2;shape=mxgraph.azure.queue_generic;pointerEvents=1;" parent="1" vertex="1"><mxGeometry x="-1115" y="406" width="50" height="15" as="geometry"/></mxCell><mxCell id="i5EGGq2S-aJdO0vi_hII-20" style="edgeStyle=orthogonalEdgeStyle;rounded=0;orthogonalLoop=1;jettySize=auto;html=1;entryX=0;entryY=0.5;entryDx=0;entryDy=0;" parent="1" source="i5EGGq2S-aJdO0vi_hII-21" target="i5EGGq2S-aJdO0vi_hII-32" edge="1"><mxGeometry relative="1" as="geometry"/></mxCell><mxCell id="i5EGGq2S-aJdO0vi_hII-21" value="Ip 21 Table" style="outlineConnect=0;dashed=0;verticalLabelPosition=bottom;verticalAlign=top;align=center;html=1;shape=mxgraph.aws3.sensor;fillColor=#5294CF;gradientColor=none;" parent="1" vertex="1"><mxGeometry x="-1128.25" y="510" width="76.5" height="90" as="geometry"/></mxCell><mxCell id="i5EGGq2S-aJdO0vi_hII-22" style="edgeStyle=orthogonalEdgeStyle;rounded=0;orthogonalLoop=1;jettySize=auto;html=1;entryX=0;entryY=0.5;entryDx=0;entryDy=0;entryPerimeter=0;" parent="1" source="i5EGGq2S-aJdO0vi_hII-23" target="i5EGGq2S-aJdO0vi_hII-24" edge="1"><mxGeometry relative="1" as="geometry"/></mxCell><mxCell id="i5EGGq2S-aJdO0vi_hII-23" value="Kafka Connector (Schema Aware)" style="rounded=1;whiteSpace=wrap;html=1;fillColor=#dae8fc;strokeColor=#6c8ebf;" parent="1" vertex="1"><mxGeometry x="-960" y="384" width="120" height="60" as="geometry"/></mxCell><mxCell id="i5EGGq2S-aJdO0vi_hII-24" value="BrainTransactionEvent" style="verticalLabelPosition=bottom;html=1;verticalAlign=top;align=center;strokeColor=none;fillColor=#00BEF2;shape=mxgraph.azure.queue_generic;pointerEvents=1;" parent="1" vertex="1"><mxGeometry x="-740" y="406" width="50" height="15" as="geometry"/></mxCell><mxCell id="i5EGGq2S-aJdO0vi_hII-25" style="edgeStyle=orthogonalEdgeStyle;rounded=0;orthogonalLoop=1;jettySize=auto;html=1;entryX=0;entryY=0.5;entryDx=0;entryDy=0;entryPerimeter=0;" parent="1" source="i5EGGq2S-aJdO0vi_hII-26" target="i5EGGq2S-aJdO0vi_hII-27" edge="1"><mxGeometry relative="1" as="geometry"/></mxCell><mxCell id="i5EGGq2S-aJdO0vi_hII-26" value="CSV/Excel Ingestion (Field Mapping Aware)" style="rounded=1;whiteSpace=wrap;html=1;fillColor=#dae8fc;strokeColor=#6c8ebf;" parent="1" vertex="1"><mxGeometry x="-590" y="221.5" width="120" height="60" as="geometry"/></mxCell><mxCell id="i5EGGq2S-aJdO0vi_hII-27" value="BrainTransactionEvent" style="verticalLabelPosition=bottom;html=1;verticalAlign=top;align=center;strokeColor=none;fillColor=#00BEF2;shape=mxgraph.azure.queue_generic;pointerEvents=1;" parent="1" vertex="1"><mxGeometry x="-390" y="244" width="50" height="15" as="geometry"/></mxCell><mxCell id="i5EGGq2S-aJdO0vi_hII-31" style="edgeStyle=orthogonalEdgeStyle;rounded=0;orthogonalLoop=1;jettySize=auto;html=1;entryX=0;entryY=0.5;entryDx=0;entryDy=0;entryPerimeter=0;" parent="1" source="i5EGGq2S-aJdO0vi_hII-32" target="i5EGGq2S-aJdO0vi_hII-33" edge="1"><mxGeometry relative="1" as="geometry"/></mxCell><mxCell id="i5EGGq2S-aJdO0vi_hII-32" value="Ip21 Connector (Schema Aware)" style="rounded=1;whiteSpace=wrap;html=1;fillColor=#dae8fc;strokeColor=#6c8ebf;" parent="1" vertex="1"><mxGeometry x="-960" y="525" width="120" height="60" as="geometry"/></mxCell><mxCell id="i5EGGq2S-aJdO0vi_hII-33" value="BrainIoTEvent" style="verticalLabelPosition=bottom;html=1;verticalAlign=top;align=center;strokeColor=none;fillColor=#00BEF2;shape=mxgraph.azure.queue_generic;pointerEvents=1;" parent="1" vertex="1"><mxGeometry x="-740" y="547.5" width="50" height="15" as="geometry"/></mxCell></root></mxGraphModel></diagram><diagram id="fPmBIGFBS45na26H48xa" name="Processes"><mxGraphModel dx="1235" dy="718" grid="1" gridSize="10" guides="1" tooltips="1" connect="1" arrows="1" fold="1" page="1" pageScale="1" pageWidth="1654" pageHeight="1169" math="0" shadow="0"><root><mxCell id="uoc8_GYQ1Lr8AECapHyB-0"/><mxCell id="uoc8_GYQ1Lr8AECapHyB-1" parent="uoc8_GYQ1Lr8AECapHyB-0"/><mxCell id="uoc8_GYQ1Lr8AECapHyB-2" value="Fliter" style="rounded=1;whiteSpace=wrap;html=1;" parent="uoc8_GYQ1Lr8AECapHyB-1" vertex="1"><mxGeometry x="410" y="50" width="120" height="60" as="geometry"/></mxCell><mxCell id="uoc8_GYQ1Lr8AECapHyB-3" value="Quantise" style="rounded=1;whiteSpace=wrap;html=1;" parent="uoc8_GYQ1Lr8AECapHyB-1" vertex="1"><mxGeometry x="410" y="130" width="120" height="60" as="geometry"/></mxCell><mxCell id="uoc8_GYQ1Lr8AECapHyB-4" value="Compute" style="rounded=1;whiteSpace=wrap;html=1;" parent="uoc8_GYQ1Lr8AECapHyB-1" vertex="1"><mxGeometry x="410" y="210" width="120" height="60" as="geometry"/></mxCell><mxCell id="uoc8_GYQ1Lr8AECapHyB-5" value="Enrich" style="rounded=1;whiteSpace=wrap;html=1;" parent="uoc8_GYQ1Lr8AECapHyB-1" vertex="1"><mxGeometry x="410" y="285" width="120" height="60" as="geometry"/></mxCell><mxCell id="uoc8_GYQ1Lr8AECapHyB-6" value="Pivot" style="rounded=1;whiteSpace=wrap;html=1;" parent="uoc8_GYQ1Lr8AECapHyB-1" vertex="1"><mxGeometry x="410" y="360" width="120" height="60" as="geometry"/></mxCell><mxCell id="uoc8_GYQ1Lr8AECapHyB-7" value="Reduce" style="rounded=1;whiteSpace=wrap;html=1;" parent="uoc8_GYQ1Lr8AECapHyB-1" vertex="1"><mxGeometry x="410" y="440" width="120" height="60" as="geometry"/></mxCell><mxCell id="uoc8_GYQ1Lr8AECapHyB-8" value="Joinner" style="rounded=1;whiteSpace=wrap;html=1;" parent="uoc8_GYQ1Lr8AECapHyB-1" vertex="1"><mxGeometry x="410" y="520" width="120" height="60" as="geometry"/></mxCell><mxCell id="uoc8_GYQ1Lr8AECapHyB-9" value="Phase Correction" style="rounded=1;whiteSpace=wrap;html=1;" parent="uoc8_GYQ1Lr8AECapHyB-1" vertex="1"><mxGeometry x="410" y="600" width="120" height="60" as="geometry"/></mxCell></root></mxGraphModel></diagram><diagram id="OcB4o4txahYUkIOnzuQC" name="Bridge"><mxGraphModel dx="985" dy="514" grid="1" gridSize="10" guides="1" tooltips="1" connect="1" arrows="1" fold="1" page="1" pageScale="1" pageWidth="1169" pageHeight="827" math="0" shadow="0"><root><mxCell id="AQsCVBlaY1zeZxxbtn4t-0"/><mxCell id="AQsCVBlaY1zeZxxbtn4t-1" parent="AQsCVBlaY1zeZxxbtn4t-0"/><mxCell id="s9Hrpr9w2undKFboS6iF-4" style="edgeStyle=orthogonalEdgeStyle;rounded=0;orthogonalLoop=1;jettySize=auto;html=1;entryX=0;entryY=0.5;entryDx=0;entryDy=0;entryPerimeter=0;" parent="AQsCVBlaY1zeZxxbtn4t-1" source="AQsCVBlaY1zeZxxbtn4t-2" target="s9Hrpr9w2undKFboS6iF-2" edge="1"><mxGeometry relative="1" as="geometry"/></mxCell><mxCell id="AQsCVBlaY1zeZxxbtn4t-2" value="Function Resolver" style="rounded=1;whiteSpace=wrap;html=1;fillColor=#dae8fc;strokeColor=#6c8ebf;" parent="AQsCVBlaY1zeZxxbtn4t-1" vertex="1"><mxGeometry x="40" y="250" width="120" height="60" as="geometry"/></mxCell><mxCell id="s9Hrpr9w2undKFboS6iF-1" style="edgeStyle=orthogonalEdgeStyle;rounded=0;orthogonalLoop=1;jettySize=auto;html=1;" parent="AQsCVBlaY1zeZxxbtn4t-1" source="AQsCVBlaY1zeZxxbtn4t-3" target="s9Hrpr9w2undKFboS6iF-0" edge="1"><mxGeometry relative="1" as="geometry"/></mxCell><mxCell id="AQsCVBlaY1zeZxxbtn4t-3" value="Feature Resolver" style="rounded=1;whiteSpace=wrap;html=1;fillColor=#dae8fc;strokeColor=#6c8ebf;" parent="AQsCVBlaY1zeZxxbtn4t-1" vertex="1"><mxGeometry x="320" y="250" width="120" height="60" as="geometry"/></mxCell><mxCell id="2eI7Y_EoJNbiXs7Zvr9v-0" value="Knowledge Lake" style="shape=cylinder3;whiteSpace=wrap;html=1;boundedLbl=1;backgroundOutline=1;size=15;fontColor=#000000;" parent="AQsCVBlaY1zeZxxbtn4t-1" vertex="1"><mxGeometry x="350" y="120" width="60" height="80" as="geometry"/></mxCell><mxCell id="2eI7Y_EoJNbiXs7Zvr9v-1" value="Feature Lake" style="shape=cylinder3;whiteSpace=wrap;html=1;boundedLbl=1;backgroundOutline=1;size=15;fontColor=#000000;" parent="AQsCVBlaY1zeZxxbtn4t-1" vertex="1"><mxGeometry x="420" y="120" width="60" height="80" as="geometry"/></mxCell><mxCell id="2eI7Y_EoJNbiXs7Zvr9v-3" value="" style="shape=flexArrow;endArrow=classic;html=1;rounded=0;fontColor=#000000;entryX=0.5;entryY=1;entryDx=0;entryDy=0;entryPerimeter=0;" parent="AQsCVBlaY1zeZxxbtn4t-1" edge="1"><mxGeometry width="50" height="50" relative="1" as="geometry"><mxPoint x="379.5" y="360" as="sourcePoint"/><mxPoint x="379.5" y="320" as="targetPoint"/></mxGeometry></mxCell><mxCell id="2eI7Y_EoJNbiXs7Zvr9v-4" value="Inference Lake" style="shape=cylinder3;whiteSpace=wrap;html=1;boundedLbl=1;backgroundOutline=1;size=15;fontColor=#000000;" parent="AQsCVBlaY1zeZxxbtn4t-1" vertex="1"><mxGeometry x="280" y="120" width="60" height="80" as="geometry"/></mxCell><mxCell id="2eI7Y_EoJNbiXs7Zvr9v-5" value="" style="shape=flexArrow;endArrow=classic;html=1;rounded=0;fontColor=#000000;" parent="AQsCVBlaY1zeZxxbtn4t-1" edge="1"><mxGeometry width="50" height="50" relative="1" as="geometry"><mxPoint x="379.5" y="206" as="sourcePoint"/><mxPoint x="379.5" y="246" as="targetPoint"/></mxGeometry></mxCell><mxCell id="s9Hrpr9w2undKFboS6iF-6" style="edgeStyle=orthogonalEdgeStyle;rounded=0;orthogonalLoop=1;jettySize=auto;html=1;entryX=0;entryY=0.5;entryDx=0;entryDy=0;" parent="AQsCVBlaY1zeZxxbtn4t-1" source="s9Hrpr9w2undKFboS6iF-0" target="s9Hrpr9w2undKFboS6iF-5" edge="1"><mxGeometry relative="1" as="geometry"/></mxCell><mxCell id="s9Hrpr9w2undKFboS6iF-0" value="BrainEvent" style="verticalLabelPosition=bottom;html=1;verticalAlign=top;align=center;strokeColor=none;fillColor=#00BEF2;shape=mxgraph.azure.queue_generic;pointerEvents=1;" parent="AQsCVBlaY1zeZxxbtn4t-1" vertex="1"><mxGeometry x="510" y="272.5" width="50" height="15" as="geometry"/></mxCell><mxCell id="s9Hrpr9w2undKFboS6iF-3" style="edgeStyle=orthogonalEdgeStyle;rounded=0;orthogonalLoop=1;jettySize=auto;html=1;entryX=0;entryY=0.5;entryDx=0;entryDy=0;" parent="AQsCVBlaY1zeZxxbtn4t-1" source="s9Hrpr9w2undKFboS6iF-2" target="AQsCVBlaY1zeZxxbtn4t-3" edge="1"><mxGeometry relative="1" as="geometry"/></mxCell><mxCell id="s9Hrpr9w2undKFboS6iF-2" value="BrainEvent" style="verticalLabelPosition=bottom;html=1;verticalAlign=top;align=center;strokeColor=none;fillColor=#00BEF2;shape=mxgraph.azure.queue_generic;pointerEvents=1;" parent="AQsCVBlaY1zeZxxbtn4t-1" vertex="1"><mxGeometry x="210" y="272.5" width="50" height="15" as="geometry"/></mxCell><mxCell id="s9Hrpr9w2undKFboS6iF-9" value="GRPC" style="edgeStyle=orthogonalEdgeStyle;rounded=0;orthogonalLoop=1;jettySize=auto;html=1;entryX=0.5;entryY=1;entryDx=0;entryDy=0;" parent="AQsCVBlaY1zeZxxbtn4t-1" source="s9Hrpr9w2undKFboS6iF-5" target="s9Hrpr9w2undKFboS6iF-8" edge="1"><mxGeometry relative="1" as="geometry"/></mxCell><mxCell id="s9Hrpr9w2undKFboS6iF-11" style="edgeStyle=orthogonalEdgeStyle;rounded=0;orthogonalLoop=1;jettySize=auto;html=1;entryX=0;entryY=0.5;entryDx=0;entryDy=0;entryPerimeter=0;" parent="AQsCVBlaY1zeZxxbtn4t-1" source="s9Hrpr9w2undKFboS6iF-5" target="s9Hrpr9w2undKFboS6iF-10" edge="1"><mxGeometry relative="1" as="geometry"/></mxCell><mxCell id="s9Hrpr9w2undKFboS6iF-5" value="Bridge" style="rounded=1;whiteSpace=wrap;html=1;fillColor=#dae8fc;strokeColor=#6c8ebf;" parent="AQsCVBlaY1zeZxxbtn4t-1" vertex="1"><mxGeometry x="621" y="250" width="120" height="60" as="geometry"/></mxCell><mxCell id="s9Hrpr9w2undKFboS6iF-7" value="Cortex API Config" style="rounded=1;whiteSpace=wrap;html=1;fillColor=#dae8fc;strokeColor=#6c8ebf;" parent="AQsCVBlaY1zeZxxbtn4t-1" vertex="1"><mxGeometry x="320" y="370" width="120" height="60" as="geometry"/></mxCell><mxCell id="s9Hrpr9w2undKFboS6iF-8" value="Cortext" style="whiteSpace=wrap;html=1;aspect=fixed;" parent="AQsCVBlaY1zeZxxbtn4t-1" vertex="1"><mxGeometry x="641" y="110" width="80" height="80" as="geometry"/></mxCell><mxCell id="s9Hrpr9w2undKFboS6iF-13" style="edgeStyle=orthogonalEdgeStyle;rounded=0;orthogonalLoop=1;jettySize=auto;html=1;" parent="AQsCVBlaY1zeZxxbtn4t-1" source="s9Hrpr9w2undKFboS6iF-10" target="s9Hrpr9w2undKFboS6iF-12" edge="1"><mxGeometry relative="1" as="geometry"/></mxCell><mxCell id="s9Hrpr9w2undKFboS6iF-10" value="BrainEvent" style="verticalLabelPosition=bottom;html=1;verticalAlign=top;align=center;strokeColor=none;fillColor=#00BEF2;shape=mxgraph.azure.queue_generic;pointerEvents=1;" parent="AQsCVBlaY1zeZxxbtn4t-1" vertex="1"><mxGeometry x="810" y="272.5" width="50" height="15" as="geometry"/></mxCell><mxCell id="s9Hrpr9w2undKFboS6iF-12" value="Inference Lake" style="rounded=0;whiteSpace=wrap;html=1;" parent="AQsCVBlaY1zeZxxbtn4t-1" vertex="1"><mxGeometry x="920" y="250" width="120" height="60" as="geometry"/></mxCell></root></mxGraphModel></diagram><diagram id="dLM_XIL_n7EsqF1u1K8I" name="Heat Exchanger"><mxGraphModel dx="1235" dy="718" grid="1" gridSize="10" guides="1" tooltips="1" connect="1" arrows="1" fold="1" page="1" pageScale="1" pageWidth="1654" pageHeight="1169" math="0" shadow="0"><root><mxCell id="x5VRXNIBZk1mZp0lyt7O-0"/><mxCell id="x5VRXNIBZk1mZp0lyt7O-1" parent="x5VRXNIBZk1mZp0lyt7O-0"/><mxCell id="x5VRXNIBZk1mZp0lyt7O-2" value="" style="rounded=0;whiteSpace=wrap;html=1;" parent="x5VRXNIBZk1mZp0lyt7O-1" vertex="1"><mxGeometry x="400" y="160" width="740" height="480" as="geometry"/></mxCell><mxCell id="x5VRXNIBZk1mZp0lyt7O-3" value="Shell Side" style="rounded=1;whiteSpace=wrap;html=1;" parent="x5VRXNIBZk1mZp0lyt7O-1" vertex="1"><mxGeometry x="240" y="290" width="1090" height="220" as="geometry"/></mxCell><mxCell id="x5VRXNIBZk1mZp0lyt7O-4" value="Tube Side" style="text;html=1;strokeColor=none;fillColor=none;align=center;verticalAlign=middle;whiteSpace=wrap;rounded=0;" parent="x5VRXNIBZk1mZp0lyt7O-1" vertex="1"><mxGeometry x="780" y="550" width="60" height="30" as="geometry"/></mxCell><mxCell id="x5VRXNIBZk1mZp0lyt7O-5" value="Tube Side Input Temperature" style="ellipse;whiteSpace=wrap;html=1;aspect=fixed;" parent="x5VRXNIBZk1mZp0lyt7O-1" vertex="1"><mxGeometry x="360" y="180" width="80" height="80" as="geometry"/></mxCell><mxCell id="x5VRXNIBZk1mZp0lyt7O-9" value="Tube Side Output Temperature" style="ellipse;whiteSpace=wrap;html=1;aspect=fixed;" parent="x5VRXNIBZk1mZp0lyt7O-1" vertex="1"><mxGeometry x="1100" y="180" width="80" height="80" as="geometry"/></mxCell><mxCell id="x5VRXNIBZk1mZp0lyt7O-10" value="Shell Side Input Temperature" style="ellipse;whiteSpace=wrap;html=1;aspect=fixed;" parent="x5VRXNIBZk1mZp0lyt7O-1" vertex="1"><mxGeometry x="1290" y="360" width="80" height="80" as="geometry"/></mxCell><mxCell id="x5VRXNIBZk1mZp0lyt7O-11" value="Shell Side Output Temperature" style="ellipse;whiteSpace=wrap;html=1;aspect=fixed;" parent="x5VRXNIBZk1mZp0lyt7O-1" vertex="1"><mxGeometry x="210" y="370" width="80" height="80" as="geometry"/></mxCell><mxCell id="x5VRXNIBZk1mZp0lyt7O-13" value="" style="shape=flexArrow;endArrow=classic;html=1;rounded=0;" parent="x5VRXNIBZk1mZp0lyt7O-1" edge="1"><mxGeometry width="50" height="50" relative="1" as="geometry"><mxPoint x="710" y="210" as="sourcePoint"/><mxPoint x="864" y="210" as="targetPoint"/></mxGeometry></mxCell><mxCell id="x5VRXNIBZk1mZp0lyt7O-16" value="Flow Rate Tube Side" style="edgeLabel;html=1;align=center;verticalAlign=middle;resizable=0;points=[];" parent="x5VRXNIBZk1mZp0lyt7O-13" vertex="1" connectable="0"><mxGeometry x="-0.0649" y="-2" relative="1" as="geometry"><mxPoint as="offset"/></mxGeometry></mxCell><mxCell id="x5VRXNIBZk1mZp0lyt7O-15" value="" style="shape=flexArrow;endArrow=classic;html=1;rounded=0;" parent="x5VRXNIBZk1mZp0lyt7O-1" edge="1"><mxGeometry width="50" height="50" relative="1" as="geometry"><mxPoint x="875" y="449" as="sourcePoint"/><mxPoint x="695" y="449" as="targetPoint"/></mxGeometry></mxCell><mxCell id="x5VRXNIBZk1mZp0lyt7O-17" value="Flow Rate Shell Side" style="edgeLabel;html=1;align=center;verticalAlign=middle;resizable=0;points=[];" parent="x5VRXNIBZk1mZp0lyt7O-15" vertex="1" connectable="0"><mxGeometry x="0.1667" y="4" relative="1" as="geometry"><mxPoint as="offset"/></mxGeometry></mxCell><mxCell id="x5VRXNIBZk1mZp0lyt7O-19" value="" style="shape=image;imageAspect=0;aspect=fixed;verticalLabelPosition=bottom;verticalAlign=top;image=data:image/svg+xml,PHN2ZyB4bWxuczp4bGluaz0iaHR0cDovL3d3dy53My5vcmcvMTk5OS94bGluayIgeG1sbnM9Imh0dHA6Ly93d3cudzMub3JnLzIwMDAvc3ZnIiB3aWR0aD0iMTkxNTgiIGhlaWdodD0iMzIxOCIgc3R5bGU9InZlcnRpY2FsLWFsaWduOiAtNC41MDVleDsiIHZpZXdCb3g9IjMyIC0xMzk4IDE5MTU4IDMyMTgiIHJvbGU9ImltZyIgZm9jdXNhYmxlPSJmYWxzZSIgYXJpYS1sYWJlbGxlZGJ5PSJNYXRoSmF4LVNWRy0xLVRpdGxlIj4mI3hhOzx0aXRsZSBpZD0iTWF0aEpheC1TVkctMS1UaXRsZSI+e1xkaXNwbGF5c3R5bGUgTE1URD17XGZyYWMge1xEZWx0YSBUX3tBfS1cRGVsdGEgVF97Qn19e1xsbiBcbGVmdCh7XGZyYWMge1xEZWx0YSBUX3tBfX17XERlbHRhIFRfe0J9fX1ccmlnaHQpfX09e1xmcmFjIHtcRGVsdGEgVF97QX0tXERlbHRhIFRfe0J9fXtcbG4gXERlbHRhIFRfe0F9LVxsbiBcRGVsdGEgVF97Qn19fX08L3RpdGxlPiYjeGE7PGRlZnMgYXJpYS1oaWRkZW49InRydWUiPiYjeGE7PHBhdGggc3Ryb2tlLXdpZHRoPSIxIiBpZD0iRTEtTUpNQVRISS00QyIgZD0iTTIyOCA2MzdRMTk0IDYzNyAxOTIgNjQxUTE5MSA2NDMgMTkxIDY0OVExOTEgNjczIDIwMiA2ODJRMjA0IDY4MyAyMTcgNjgzUTI3MSA2ODAgMzQ0IDY4MFE0ODUgNjgwIDUwNiA2ODNINTE4UTUyNCA2NzcgNTI0IDY3NFQ1MjIgNjU2UTUxNyA2NDEgNTEzIDYzN0g0NzVRNDA2IDYzNiAzOTQgNjI4UTM4NyA2MjQgMzgwIDYwMFQzMTMgMzM2UTI5NyAyNzEgMjc5IDE5OFQyNTIgODhMMjQzIDUyUTI0MyA0OCAyNTIgNDhUMzExIDQ2SDMyOFEzNjAgNDYgMzc5IDQ3VDQyOCA1NFQ0NzggNzJUNTIyIDEwNlQ1NjQgMTYxUTU4MCAxOTEgNTk0IDIyOFQ2MTEgMjcwUTYxNiAyNzMgNjI4IDI3M0g2NDFRNjQ3IDI2NCA2NDcgMjYyVDYyNyAyMDNUNTgzIDgzVDU1NyA5UTU1NSA0IDU1MyAzVDUzNyAwVDQ5NCAtMVE0ODMgLTEgNDE4IC0xVDI5NCAwSDExNlEzMiAwIDMyIDEwUTMyIDE3IDM0IDI0UTM5IDQzIDQ0IDQ1UTQ4IDQ2IDU5IDQ2SDY1UTkyIDQ2IDEyNSA0OVExMzkgNTIgMTQ0IDYxUTE0NyA2NSAyMTYgMzM5VDI4NSA2MjhRMjg1IDYzNSAyMjggNjM3WiIvPiYjeGE7PHBhdGggc3Ryb2tlLXdpZHRoPSIxIiBpZD0iRTEtTUpNQVRISS00RCIgZD0iTTI4OSA2MjlRMjg5IDYzNSAyMzIgNjM3UTIwOCA2MzcgMjAxIDYzOFQxOTQgNjQ4UTE5NCA2NDkgMTk2IDY1OVExOTcgNjYyIDE5OCA2NjZUMTk5IDY3MVQyMDEgNjc2VDIwMyA2NzlUMjA3IDY4MVQyMTIgNjgzVDIyMCA2ODNUMjMyIDY4NFEyMzggNjg0IDI2MiA2ODRUMzA3IDY4M1EzODYgNjgzIDM5OCA2ODNUNDE0IDY3OFE0MTUgNjc0IDQ1MSAzOTZMNDg3IDExN0w1MTAgMTU0UTUzNCAxOTAgNTc0IDI1NFQ2NjIgMzk0UTgzNyA2NzMgODM5IDY3NVE4NDAgNjc2IDg0MiA2NzhUODQ2IDY4MUw4NTIgNjgzSDk0OFE5NjUgNjgzIDk4OCA2ODNUMTAxNyA2ODRRMTA1MSA2ODQgMTA1MSA2NzNRMTA1MSA2NjggMTA0OCA2NTZUMTA0NSA2NDNRMTA0MSA2MzcgMTAwOCA2MzdROTY4IDYzNiA5NTcgNjM0VDkzOSA2MjNROTM2IDYxOCA4NjcgMzQwVDc5NyA1OVE3OTcgNTUgNzk4IDU0VDgwNSA1MFQ4MjIgNDhUODU1IDQ2SDg4NlE4OTIgMzcgODkyIDM1UTg5MiAxOSA4ODUgNVE4ODAgMCA4NjkgMFE4NjQgMCA4MjggMVQ3MzYgMlE2NzUgMiA2NDQgMlQ2MDkgMVE1OTIgMSA1OTIgMTFRNTkyIDEzIDU5NCAyNVE1OTggNDEgNjAyIDQzVDYyNSA0NlE2NTIgNDYgNjg1IDQ5UTY5OSA1MiA3MDQgNjFRNzA2IDY1IDc0MiAyMDdUODEzIDQ5MFQ4NDggNjMxTDY1NCAzMjJRNDU4IDEwIDQ1MyA1UTQ1MSA0IDQ0OSAzUTQ0NCAwIDQzMyAwUTQxOCAwIDQxNSA3UTQxMyAxMSAzNzQgMzE3TDMzNSA2MjRMMjY3IDM1NFEyMDAgODggMjAwIDc5UTIwNiA0NiAyNzIgNDZIMjgyUTI4OCA0MSAyODkgMzdUMjg2IDE5UTI4MiAzIDI3OCAxUTI3NCAwIDI2NyAwUTI2NSAwIDI1NSAwVDIyMSAxVDE1NyAyUTEyNyAyIDk1IDFUNTggMFE0MyAwIDM5IDJUMzUgMTFRMzUgMTMgMzggMjVUNDMgNDBRNDUgNDYgNjUgNDZRMTM1IDQ2IDE1NCA4NlExNTggOTIgMjIzIDM1NFQyODkgNjI5WiIvPiYjeGE7PHBhdGggc3Ryb2tlLXdpZHRoPSIxIiBpZD0iRTEtTUpNQVRISS01NCIgZD0iTTQwIDQzN1EyMSA0MzcgMjEgNDQ1UTIxIDQ1MCAzNyA1MDFUNzEgNjAyTDg4IDY1MVE5MyA2NjkgMTAxIDY3N0g1NjlINjU5UTY5MSA2NzcgNjk3IDY3NlQ3MDQgNjY3UTcwNCA2NjEgNjg3IDU1M1Q2NjggNDQ0UTY2OCA0MzcgNjQ5IDQzN1E2NDAgNDM3IDYzNyA0MzdUNjMxIDQ0Mkw2MjkgNDQ1UTYyOSA0NTEgNjM1IDQ5MFQ2NDEgNTUxUTY0MSA1ODYgNjI4IDYwNFQ1NzMgNjI5UTU2OCA2MzAgNTE1IDYzMVE0NjkgNjMxIDQ1NyA2MzBUNDM5IDYyMlE0MzggNjIxIDM2OCAzNDNUMjk4IDYwUTI5OCA0OCAzODYgNDZRNDE4IDQ2IDQyNyA0NVQ0MzYgMzZRNDM2IDMxIDQzMyAyMlE0MjkgNCA0MjQgMUw0MjIgMFE0MTkgMCA0MTUgMFE0MTAgMCAzNjMgMVQyMjggMlE5OSAyIDY0IDBINDlRNDMgNiA0MyA5VDQ1IDI3UTQ5IDQwIDU1IDQ2SDgzSDk0UTE3NCA0NiAxODkgNTVRMTkwIDU2IDE5MSA1NlExOTYgNTkgMjAxIDc2VDI0MSAyMzNRMjU4IDMwMSAyNjkgMzQ0UTMzOSA2MTkgMzM5IDYyNVEzMzkgNjMwIDMxMCA2MzBIMjc5UTIxMiA2MzAgMTkxIDYyNFExNDYgNjE0IDEyMSA1ODNUNjcgNDY3UTYwIDQ0NSA1NyA0NDFUNDMgNDM3SDQwWiIvPiYjeGE7PHBhdGggc3Ryb2tlLXdpZHRoPSIxIiBpZD0iRTEtTUpNQVRISS00NCIgZD0iTTI4NyA2MjhRMjg3IDYzNSAyMzAgNjM3UTIwNyA2MzcgMjAwIDYzOFQxOTMgNjQ3UTE5MyA2NTUgMTk3IDY2N1QyMDQgNjgyUTIwNiA2ODMgNDAzIDY4M1E1NzAgNjgyIDU5MCA2ODJUNjMwIDY3NlE3MDIgNjU5IDc1MiA1OTdUODAzIDQzMVE4MDMgMjc1IDY5NiAxNTFUNDQ0IDNMNDMwIDFMMjM2IDBIMTI1SDcyUTQ4IDAgNDEgMlQzMyAxMVEzMyAxMyAzNiAyNVE0MCA0MSA0NCA0M1Q2NyA0NlE5NCA0NiAxMjcgNDlRMTQxIDUyIDE0NiA2MVExNDkgNjUgMjE4IDMzOVQyODcgNjI4Wk03MDMgNDY5UTcwMyA1MDcgNjkyIDUzN1Q2NjYgNTg0VDYyOSA2MTNUNTkwIDYyOVQ1NTUgNjM2UTU1MyA2MzYgNTQxIDYzNlQ1MTIgNjM2VDQ3OSA2MzdINDM2UTM5MiA2MzcgMzg2IDYyN1EzODQgNjIzIDMxMyAzMzlUMjQyIDUyUTI0MiA0OCAyNTMgNDhUMzMwIDQ3UTMzNSA0NyAzNDkgNDdUMzczIDQ2UTQ5OSA0NiA1ODEgMTI4UTYxNyAxNjQgNjQwIDIxMlQ2ODMgMzM5VDcwMyA0NjlaIi8+JiN4YTs8cGF0aCBzdHJva2Utd2lkdGg9IjEiIGlkPSJFMS1NSk1BSU4tM0QiIGQ9Ik01NiAzNDdRNTYgMzYwIDcwIDM2N0g3MDdRNzIyIDM1OSA3MjIgMzQ3UTcyMiAzMzYgNzA4IDMyOEwzOTAgMzI3SDcyUTU2IDMzMiA1NiAzNDdaTTU2IDE1M1E1NiAxNjggNzIgMTczSDcwOFE3MjIgMTYzIDcyMiAxNTNRNzIyIDE0MCA3MDcgMTMzSDcwUTU2IDE0MCA1NiAxNTNaIi8+JiN4YTs8cGF0aCBzdHJva2Utd2lkdGg9IjEiIGlkPSJFMS1NSk1BSU4tMzk0IiBkPSJNNTEgMFE0NiA0IDQ2IDdRNDYgOSAyMTUgMzU3VDM4OCA3MDlRMzkxIDcxNiA0MTYgNzE2UTQzOSA3MTYgNDQ0IDcwOVE0NDcgNzA1IDYxNiAzNTdUNzg2IDdRNzg2IDQgNzgxIDBINTFaTTUwNyAzNDRMMzg0IDU5NkwxMzcgOTJMMzgzIDkxSDYzMFE2MzAgOTMgNTA3IDM0NFoiLz4mI3hhOzxwYXRoIHN0cm9rZS13aWR0aD0iMSIgaWQ9IkUxLU1KTUFUSEktNDEiIGQ9Ik0yMDggNzRRMjA4IDUwIDI1NCA0NlEyNzIgNDYgMjcyIDM1UTI3MiAzNCAyNzAgMjJRMjY3IDggMjY0IDRUMjUxIDBRMjQ5IDAgMjM5IDBUMjA1IDFUMTQxIDJRNzAgMiA1MCAwSDQyUTM1IDcgMzUgMTFRMzcgMzggNDggNDZINjJRMTMyIDQ5IDE2NCA5NlExNzAgMTAyIDM0NSA0MDFUNTIzIDcwNFE1MzAgNzE2IDU0NyA3MTZINTU1SDU3MlE1NzggNzA3IDU3OCA3MDZMNjA2IDM4M1E2MzQgNjAgNjM2IDU3UTY0MSA0NiA3MDEgNDZRNzI2IDQ2IDcyNiAzNlE3MjYgMzQgNzIzIDIyUTcyMCA3IDcxOCA0VDcwNCAwUTcwMSAwIDY5MCAwVDY1MSAxVDU3OCAyUTQ4NCAyIDQ1NSAwSDQ0M1E0MzcgNiA0MzcgOVQ0MzkgMjdRNDQzIDQwIDQ0NSA0M0w0NDkgNDZINDY5UTUyMyA0OSA1MzMgNjNMNTIxIDIxM0gyODNMMjQ5IDE1NVEyMDggODYgMjA4IDc0Wk01MTYgMjYwUTUxNiAyNzEgNTA0IDQxNlQ0OTAgNTYyTDQ2MyA1MTlRNDQ3IDQ5MiA0MDAgNDEyTDMxMCAyNjBMNDEzIDI1OVE1MTYgMjU5IDUxNiAyNjBaIi8+JiN4YTs8cGF0aCBzdHJva2Utd2lkdGg9IjEiIGlkPSJFMS1NSk1BSU4tMjIxMiIgZD0iTTg0IDIzN1Q4NCAyNTBUOTggMjcwSDY3OVE2OTQgMjYyIDY5NCAyNTBUNjc5IDIzMEg5OFE4NCAyMzcgODQgMjUwWiIvPiYjeGE7PHBhdGggc3Ryb2tlLXdpZHRoPSIxIiBpZD0iRTEtTUpNQVRISS00MiIgZD0iTTIzMSA2MzdRMjA0IDYzNyAxOTkgNjM4VDE5NCA2NDlRMTk0IDY3NiAyMDUgNjgyUTIwNiA2ODMgMzM1IDY4M1E1OTQgNjgzIDYwOCA2ODFRNjcxIDY3MSA3MTMgNjM2VDc1NiA1NDRRNzU2IDQ4MCA2OTggNDI5VDU2NSAzNjBMNTU1IDM1N1E2MTkgMzQ4IDY2MCAzMTFUNzAyIDIxOVE3MDIgMTQ2IDYzMCA3OFQ0NTMgMVE0NDYgMCAyNDIgMFE0MiAwIDM5IDJRMzUgNSAzNSAxMFEzNSAxNyAzNyAyNFE0MiA0MyA0NyA0NVE1MSA0NiA2MiA0Nkg2OFE5NSA0NiAxMjggNDlRMTQyIDUyIDE0NyA2MVExNTAgNjUgMjE5IDMzOVQyODggNjI4UTI4OCA2MzUgMjMxIDYzN1pNNjQ5IDU0NFE2NDkgNTc0IDYzNCA2MDBUNTg1IDYzNFE1NzggNjM2IDQ5MyA2MzdRNDczIDYzNyA0NTEgNjM3VDQxNiA2MzZINDAzUTM4OCA2MzUgMzg0IDYyNlEzODIgNjIyIDM1MiA1MDZRMzUyIDUwMyAzNTEgNTAwTDMyMCAzNzRINDAxUTQ4MiAzNzQgNDk0IDM3NlE1NTQgMzg2IDYwMSA0MzRUNjQ5IDU0NFpNNTk1IDIyOVE1OTUgMjczIDU3MiAzMDJUNTEyIDMzNlE1MDYgMzM3IDQyOSAzMzdRMzExIDMzNyAzMTAgMzM2UTMxMCAzMzQgMjkzIDI2M1QyNTggMTIyTDI0MCA1MlEyNDAgNDggMjUyIDQ4VDMzMyA0NlE0MjIgNDYgNDI5IDQ3UTQ5MSA1NCA1NDMgMTA1VDU5NSAyMjlaIi8+JiN4YTs8cGF0aCBzdHJva2Utd2lkdGg9IjEiIGlkPSJFMS1NSk1BSU4tNkMiIGQ9Ik00MiA0Nkg1NlE5NSA0NiAxMDMgNjBWNjhRMTAzIDc3IDEwMyA5MVQxMDMgMTI0VDEwNCAxNjdUMTA0IDIxN1QxMDQgMjcyVDEwNCAzMjlRMTA0IDM2NiAxMDQgNDA3VDEwNCA0ODJUMTA0IDU0MlQxMDMgNTg2VDEwMyA2MDNRMTAwIDYyMiA4OSA2MjhUNDQgNjM3SDI2VjY2MFEyNiA2ODMgMjggNjgzTDM4IDY4NFE0OCA2ODUgNjcgNjg2VDEwNCA2ODhRMTIxIDY4OSAxNDEgNjkwVDE3MSA2OTNUMTgyIDY5NEgxODVWMzc5UTE4NSA2MiAxODYgNjBRMTkwIDUyIDE5OCA0OVEyMTkgNDYgMjQ3IDQ2SDI2M1YwSDI1NUwyMzIgMVEyMDkgMiAxODMgMlQxNDUgM1QxMDcgM1Q1NyAxTDM0IDBIMjZWNDZINDJaIi8+JiN4YTs8cGF0aCBzdHJva2Utd2lkdGg9IjEiIGlkPSJFMS1NSk1BSU4tNkUiIGQ9Ik00MSA0Nkg1NVE5NCA0NiAxMDIgNjBWNjhRMTAyIDc3IDEwMiA5MVQxMDIgMTIyVDEwMyAxNjFUMTAzIDIwM1ExMDMgMjM0IDEwMyAyNjlUMTAyIDMyOFYzNTFROTkgMzcwIDg4IDM3NlQ0MyAzODVIMjVWNDA4UTI1IDQzMSAyNyA0MzFMMzcgNDMyUTQ3IDQzMyA2NSA0MzRUMTAyIDQzNlExMTkgNDM3IDEzOCA0MzhUMTY3IDQ0MVQxNzggNDQySDE4MVY0MDJRMTgxIDM2NCAxODIgMzY0VDE4NyAzNjlUMTk5IDM4NFQyMTggNDAyVDI0NyA0MjFUMjg1IDQzN1EzMDUgNDQyIDMzNiA0NDJRNDUwIDQzOCA0NjMgMzI5UTQ2NCAzMjIgNDY0IDE5MFYxMDRRNDY0IDY2IDQ2NiA1OVQ0NzcgNDlRNDk4IDQ2IDUyNiA0Nkg1NDJWMEg1MzRMNTEwIDFRNDg3IDIgNDYwIDJUNDIyIDNRMzE5IDMgMzEwIDBIMzAyVjQ2SDMxOFEzNzkgNDYgMzc5IDYyUTM4MCA2NCAzODAgMjAwUTM3OSAzMzUgMzc4IDM0M1EzNzIgMzcxIDM1OCAzODVUMzM0IDQwMlQzMDggNDA0UTI2MyA0MDQgMjI5IDM3MFEyMDIgMzQzIDE5NSAzMTVUMTg3IDIzMlYxNjhWMTA4UTE4NyA3OCAxODggNjhUMTkxIDU1VDIwMCA0OVEyMjEgNDYgMjQ5IDQ2SDI2NVYwSDI1N0wyMzQgMVEyMTAgMiAxODMgMlQxNDUgM1E0MiAzIDMzIDBIMjVWNDZINDFaIi8+JiN4YTs8cGF0aCBzdHJva2Utd2lkdGg9IjEiIGlkPSJFMS1NSk1BSU4tMjgiIGQ9Ik05NCAyNTBROTQgMzE5IDEwNCAzODFUMTI3IDQ4OFQxNjQgNTc2VDIwMiA2NDNUMjQ0IDY5NVQyNzcgNzI5VDMwMiA3NTBIMzE1SDMxOVEzMzMgNzUwIDMzMyA3NDFRMzMzIDczOCAzMTYgNzIwVDI3NSA2NjdUMjI2IDU4MVQxODQgNDQzVDE2NyAyNTBUMTg0IDU4VDIyNSAtODFUMjc0IC0xNjdUMzE2IC0yMjBUMzMzIC0yNDFRMzMzIC0yNTAgMzE4IC0yNTBIMzE1SDMwMkwyNzQgLTIyNlExODAgLTE0MSAxMzcgLTE0VDk0IDI1MFoiLz4mI3hhOzxwYXRoIHN0cm9rZS13aWR0aD0iMSIgaWQ9IkUxLU1KTUFJTi0yOSIgZD0iTTYwIDc0OUw2NCA3NTBRNjkgNzUwIDc0IDc1MEg4NkwxMTQgNzI2UTIwOCA2NDEgMjUxIDUxNFQyOTQgMjUwUTI5NCAxODIgMjg0IDExOVQyNjEgMTJUMjI0IC03NlQxODYgLTE0M1QxNDUgLTE5NFQxMTMgLTIyN1Q5MCAtMjQ2UTg3IC0yNDkgODYgLTI1MEg3NFE2NiAtMjUwIDYzIC0yNTBUNTggLTI0N1Q1NSAtMjM4UTU2IC0yMzcgNjYgLTIyNVEyMjEgLTY0IDIyMSAyNTBUNjYgNzI1UTU2IDczNyA1NSA3MzhRNTUgNzQ2IDYwIDc0OVoiLz4mI3hhOzxwYXRoIHN0cm9rZS13aWR0aD0iMSIgaWQ9IkUxLU1KU1oyLTI4IiBkPSJNMTgwIDk2VDE4MCAyNTBUMjA1IDU0MVQyNjYgNzcwVDM1MyA5NDRUNDQ0IDEwNjlUNTI3IDExNTBINTU1UTU2MSAxMTQ0IDU2MSAxMTQxUTU2MSAxMTM3IDU0NSAxMTIwVDUwNCAxMDcyVDQ0NyA5OTVUMzg2IDg3OFQzMzAgNzIxVDI4OCA1MTNUMjcyIDI1MVEyNzIgMTMzIDI4MCA1NlEyOTMgLTg3IDMyNiAtMjA5VDM5OSAtNDA1VDQ3NSAtNTMxVDUzNiAtNjA5VDU2MSAtNjQwUTU2MSAtNjQzIDU1NSAtNjQ5SDUyN1E0ODMgLTYxMiA0NDMgLTU2OFQzNTMgLTQ0M1QyNjYgLTI3MFQyMDUgLTQxWiIvPiYjeGE7PHBhdGggc3Ryb2tlLXdpZHRoPSIxIiBpZD0iRTEtTUpTWjItMjkiIGQ9Ik0zNSAxMTM4UTM1IDExNTAgNTEgMTE1MEg1Nkg2OVExMTMgMTExMyAxNTMgMTA2OVQyNDMgOTQ0VDMzMCA3NzFUMzkxIDU0MVQ0MTYgMjUwVDM5MSAtNDBUMzMwIC0yNzBUMjQzIC00NDNUMTUyIC01NjhUNjkgLTY0OUg1NlE0MyAtNjQ5IDM5IC02NDdUMzUgLTYzN1E2NSAtNjA3IDExMCAtNTQ4UTI4MyAtMzE2IDMxNiA1NlEzMjQgMTMzIDMyNCAyNTFRMzI0IDM2OCAzMTYgNDQ1UTI3OCA4NzcgNDggMTEyM1EzNiAxMTM3IDM1IDExMzhaIi8+JiN4YTs8L2RlZnM+JiN4YTs8ZyBzdHJva2U9ImN1cnJlbnRDb2xvciIgZmlsbD0iY3VycmVudENvbG9yIiBzdHJva2Utd2lkdGg9IjAiIHRyYW5zZm9ybT0ibWF0cml4KDEgMCAwIC0xIDAgMCkiIGFyaWEtaGlkZGVuPSJ0cnVlIj4mI3hhOyA8dXNlIHhsaW5rOmhyZWY9IiNFMS1NSk1BVEhJLTRDIiB4PSIwIiB5PSIwIi8+JiN4YTsgPHVzZSB4bGluazpocmVmPSIjRTEtTUpNQVRISS00RCIgeD0iNjgxIiB5PSIwIi8+JiN4YTsgPHVzZSB4bGluazpocmVmPSIjRTEtTUpNQVRISS01NCIgeD0iMTczMyIgeT0iMCIvPiYjeGE7IDx1c2UgeGxpbms6aHJlZj0iI0UxLU1KTUFUSEktNDQiIHg9IjI0MzciIHk9IjAiLz4mI3hhOyA8dXNlIHhsaW5rOmhyZWY9IiNFMS1NSk1BSU4tM0QiIHg9IjM1NDMiIHk9IjAiLz4mI3hhOzxnIHRyYW5zZm9ybT0idHJhbnNsYXRlKDQ2MDAsMCkiPiYjeGE7PGcgdHJhbnNmb3JtPSJ0cmFuc2xhdGUoMTIwLDApIj4mI3hhOzxyZWN0IHN0cm9rZT0ibm9uZSIgd2lkdGg9IjU0NDYiIGhlaWdodD0iNjAiIHg9IjAiIHk9IjIyMCIvPiYjeGE7PGcgdHJhbnNmb3JtPSJ0cmFuc2xhdGUoNjAsNjgyKSI+JiN4YTsgPHVzZSB4bGluazpocmVmPSIjRTEtTUpNQUlOLTM5NCIgeD0iMCIgeT0iMCIvPiYjeGE7PGcgdHJhbnNmb3JtPSJ0cmFuc2xhdGUoODMzLDApIj4mI3hhOyA8dXNlIHhsaW5rOmhyZWY9IiNFMS1NSk1BVEhJLTU0IiB4PSIwIiB5PSIwIi8+JiN4YTsgPHVzZSB0cmFuc2Zvcm09InNjYWxlKDAuNzA3KSIgeGxpbms6aHJlZj0iI0UxLU1KTUFUSEktNDEiIHg9IjgyNiIgeT0iLTIzMCIvPiYjeGE7PC9nPiYjeGE7IDx1c2UgeGxpbms6aHJlZj0iI0UxLU1KTUFJTi0yMjEyIiB4PSIyMjcwIiB5PSIwIi8+JiN4YTsgPHVzZSB4bGluazpocmVmPSIjRTEtTUpNQUlOLTM5NCIgeD0iMzI3MSIgeT0iMCIvPiYjeGE7PGcgdHJhbnNmb3JtPSJ0cmFuc2xhdGUoNDEwNSwwKSI+JiN4YTsgPHVzZSB4bGluazpocmVmPSIjRTEtTUpNQVRISS01NCIgeD0iMCIgeT0iMCIvPiYjeGE7IDx1c2UgdHJhbnNmb3JtPSJzY2FsZSgwLjcwNykiIHhsaW5rOmhyZWY9IiNFMS1NSk1BVEhJLTQyIiB4PSI4MjYiIHk9Ii0yMTMiLz4mI3hhOzwvZz4mI3hhOzwvZz4mI3hhOzxnIHRyYW5zZm9ybT0idHJhbnNsYXRlKDc3MywtMTE3MCkiPiYjeGE7IDx1c2UgeGxpbms6aHJlZj0iI0UxLU1KTUFJTi02QyIvPiYjeGE7IDx1c2UgeGxpbms6aHJlZj0iI0UxLU1KTUFJTi02RSIgeD0iMjc4IiB5PSIwIi8+JiN4YTs8ZyB0cmFuc2Zvcm09InRyYW5zbGF0ZSg4MzUsMCkiPiYjeGE7IDx1c2UgeGxpbms6aHJlZj0iI0UxLU1KU1oyLTI4Ii8+JiN4YTs8ZyB0cmFuc2Zvcm09InRyYW5zbGF0ZSg1OTcsMCkiPiYjeGE7PGcgdHJhbnNmb3JtPSJ0cmFuc2xhdGUoMTIwLDApIj4mI3hhOzxyZWN0IHN0cm9rZT0ibm9uZSIgd2lkdGg9IjE2MjkiIGhlaWdodD0iNjAiIHg9IjAiIHk9IjIyMCIvPiYjeGE7PGcgdHJhbnNmb3JtPSJ0cmFuc2xhdGUoNjIsNjEzKSI+JiN4YTsgPHVzZSB0cmFuc2Zvcm09InNjYWxlKDAuNzA3KSIgeGxpbms6aHJlZj0iI0UxLU1KTUFJTi0zOTQiIHg9IjAiIHk9IjAiLz4mI3hhOzxnIHRyYW5zZm9ybT0idHJhbnNsYXRlKDU4OSwwKSI+JiN4YTsgPHVzZSB0cmFuc2Zvcm09InNjYWxlKDAuNzA3KSIgeGxpbms6aHJlZj0iI0UxLU1KTUFUSEktNTQiIHg9IjAiIHk9IjAiLz4mI3hhOyA8dXNlIHRyYW5zZm9ybT0ic2NhbGUoMC41NzQpIiB4bGluazpocmVmPSIjRTEtTUpNQVRISS00MSIgeD0iNzE5IiB5PSItMjkzIi8+JiN4YTs8L2c+JiN4YTs8L2c+JiN4YTs8ZyB0cmFuc2Zvcm09InRyYW5zbGF0ZSg2MCwtNDUyKSI+JiN4YTsgPHVzZSB0cmFuc2Zvcm09InNjYWxlKDAuNzA3KSIgeGxpbms6aHJlZj0iI0UxLU1KTUFJTi0zOTQiIHg9IjAiIHk9IjAiLz4mI3hhOzxnIHRyYW5zZm9ybT0idHJhbnNsYXRlKDU4OSwwKSI+JiN4YTsgPHVzZSB0cmFuc2Zvcm09InNjYWxlKDAuNzA3KSIgeGxpbms6aHJlZj0iI0UxLU1KTUFUSEktNTQiIHg9IjAiIHk9IjAiLz4mI3hhOyA8dXNlIHRyYW5zZm9ybT0ic2NhbGUoMC41NzQpIiB4bGluazpocmVmPSIjRTEtTUpNQVRISS00MiIgeD0iNzE5IiB5PSItMjYwIi8+JiN4YTs8L2c+JiN4YTs8L2c+JiN4YTs8L2c+JiN4YTs8L2c+JiN4YTsgPHVzZSB4bGluazpocmVmPSIjRTEtTUpTWjItMjkiIHg9IjI0NjYiIHk9Ii0xIi8+JiN4YTs8L2c+JiN4YTs8L2c+JiN4YTs8L2c+JiN4YTs8L2c+JiN4YTsgPHVzZSB4bGluazpocmVmPSIjRTEtTUpNQUlOLTNEIiB4PSIxMDU2NCIgeT0iMCIvPiYjeGE7PGcgdHJhbnNmb3JtPSJ0cmFuc2xhdGUoMTE2MjAsMCkiPiYjeGE7PGcgdHJhbnNmb3JtPSJ0cmFuc2xhdGUoMTIwLDApIj4mI3hhOzxyZWN0IHN0cm9rZT0ibm9uZSIgd2lkdGg9Ijc0NTAiIGhlaWdodD0iNjAiIHg9IjAiIHk9IjIyMCIvPiYjeGE7PGcgdHJhbnNmb3JtPSJ0cmFuc2xhdGUoMTA2MSw2ODIpIj4mI3hhOyA8dXNlIHhsaW5rOmhyZWY9IiNFMS1NSk1BSU4tMzk0IiB4PSIwIiB5PSIwIi8+JiN4YTs8ZyB0cmFuc2Zvcm09InRyYW5zbGF0ZSg4MzMsMCkiPiYjeGE7IDx1c2UgeGxpbms6aHJlZj0iI0UxLU1KTUFUSEktNTQiIHg9IjAiIHk9IjAiLz4mI3hhOyA8dXNlIHRyYW5zZm9ybT0ic2NhbGUoMC43MDcpIiB4bGluazpocmVmPSIjRTEtTUpNQVRISS00MSIgeD0iODI2IiB5PSItMjMwIi8+JiN4YTs8L2c+JiN4YTsgPHVzZSB4bGluazpocmVmPSIjRTEtTUpNQUlOLTIyMTIiIHg9IjIyNzAiIHk9IjAiLz4mI3hhOyA8dXNlIHhsaW5rOmhyZWY9IiNFMS1NSk1BSU4tMzk0IiB4PSIzMjcxIiB5PSIwIi8+JiN4YTs8ZyB0cmFuc2Zvcm09InRyYW5zbGF0ZSg0MTA1LDApIj4mI3hhOyA8dXNlIHhsaW5rOmhyZWY9IiNFMS1NSk1BVEhJLTU0IiB4PSIwIiB5PSIwIi8+JiN4YTsgPHVzZSB0cmFuc2Zvcm09InNjYWxlKDAuNzA3KSIgeGxpbms6aHJlZj0iI0UxLU1KTUFUSEktNDIiIHg9IjgyNiIgeT0iLTIxMyIvPiYjeGE7PC9nPiYjeGE7PC9nPiYjeGE7PGcgdHJhbnNmb3JtPSJ0cmFuc2xhdGUoNjAsLTczNykiPiYjeGE7IDx1c2UgeGxpbms6aHJlZj0iI0UxLU1KTUFJTi02QyIvPiYjeGE7IDx1c2UgeGxpbms6aHJlZj0iI0UxLU1KTUFJTi02RSIgeD0iMjc4IiB5PSIwIi8+JiN4YTsgPHVzZSB4bGluazpocmVmPSIjRTEtTUpNQUlOLTM5NCIgeD0iMTAwMSIgeT0iMCIvPiYjeGE7PGcgdHJhbnNmb3JtPSJ0cmFuc2xhdGUoMTgzNSwwKSI+JiN4YTsgPHVzZSB4bGluazpocmVmPSIjRTEtTUpNQVRISS01NCIgeD0iMCIgeT0iMCIvPiYjeGE7IDx1c2UgdHJhbnNmb3JtPSJzY2FsZSgwLjcwNykiIHhsaW5rOmhyZWY9IiNFMS1NSk1BVEhJLTQxIiB4PSI4MjYiIHk9Ii0yMzAiLz4mI3hhOzwvZz4mI3hhOyA8dXNlIHhsaW5rOmhyZWY9IiNFMS1NSk1BSU4tMjIxMiIgeD0iMzI3MiIgeT0iMCIvPiYjeGE7PGcgdHJhbnNmb3JtPSJ0cmFuc2xhdGUoNDI3MywwKSI+JiN4YTsgPHVzZSB4bGluazpocmVmPSIjRTEtTUpNQUlOLTZDIi8+JiN4YTsgPHVzZSB4bGluazpocmVmPSIjRTEtTUpNQUlOLTZFIiB4PSIyNzgiIHk9IjAiLz4mI3hhOzwvZz4mI3hhOyA8dXNlIHhsaW5rOmhyZWY9IiNFMS1NSk1BSU4tMzk0IiB4PSI1Mjc0IiB5PSIwIi8+JiN4YTs8ZyB0cmFuc2Zvcm09InRyYW5zbGF0ZSg2MTA4LDApIj4mI3hhOyA8dXNlIHhsaW5rOmhyZWY9IiNFMS1NSk1BVEhJLTU0IiB4PSIwIiB5PSIwIi8+JiN4YTsgPHVzZSB0cmFuc2Zvcm09InNjYWxlKDAuNzA3KSIgeGxpbms6aHJlZj0iI0UxLU1KTUFUSEktNDIiIHg9IjgyNiIgeT0iLTIxMyIvPiYjeGE7PC9nPiYjeGE7PC9nPiYjeGE7PC9nPiYjeGE7PC9nPiYjeGE7PC9nPiYjeGE7PC9zdmc+;" parent="x5VRXNIBZk1mZp0lyt7O-1" vertex="1"><mxGeometry x="825" y="62" width="520" height="87" as="geometry"/></mxCell><mxCell id="x5VRXNIBZk1mZp0lyt7O-20" value="" style="shape=image;imageAspect=0;aspect=fixed;verticalLabelPosition=bottom;verticalAlign=top;image=data:image/svg+xml,PHN2ZyB4bWxuczp4bGluaz0iaHR0cDovL3d3dy53My5vcmcvMTk5OS94bGluayIgeG1sbnM9Imh0dHA6Ly93d3cudzMub3JnLzIwMDAvc3ZnIiB3aWR0aD0iOTI3OSIgaGVpZ2h0PSI5MTAiIHN0eWxlPSJ2ZXJ0aWNhbC1hbGlnbjogLTAuNjcxZXg7IiB2aWV3Qm94PSI1MCAtNzE2IDkyNzkgOTEwIiByb2xlPSJpbWciIGZvY3VzYWJsZT0iZmFsc2UiIGFyaWEtbGFiZWxsZWRieT0iTWF0aEpheC1TVkctMS1UaXRsZSI+JiN4YTs8dGl0bGUgaWQ9Ik1hdGhKYXgtU1ZHLTEtVGl0bGUiPntcZGlzcGxheXN0eWxlIFE9VVx0aW1lcyBBXHRpbWVzIExNVER9PC90aXRsZT4mI3hhOzxkZWZzIGFyaWEtaGlkZGVuPSJ0cnVlIj4mI3hhOzxwYXRoIHN0cm9rZS13aWR0aD0iMSIgaWQ9IkUxLU1KTUFUSEktNTEiIGQ9Ik0zOTkgLTgwUTM5OSAtNDcgNDAwIC0zMFQ0MDIgLTExVi03TDM4NyAtMTFRMzQxIC0yMiAzMDMgLTIyUTIwOCAtMjIgMTM4IDM1VDUxIDIwMVE1MCAyMDkgNTAgMjQ0UTUwIDM0NiA5OCA0MzhUMjI3IDYwMVEzNTEgNzA0IDQ3NiA3MDRRNTE0IDcwNCA1MjQgNzAzUTYyMSA2ODkgNjgwIDYxN1Q3NDAgNDM1UTc0MCAyNTUgNTkyIDEwN1E1MjkgNDcgNDYxIDE2TDQ0NCA4VjNRNDQ0IDIgNDQ5IC0yNFQ0NzAgLTY2VDUxNiAtODJRNTUxIC04MiA1ODMgLTYwVDYyNSAtM1E2MzEgMTEgNjM4IDExUTY0NyAxMSA2NDkgMlE2NDkgLTYgNjM5IC0zNFQ2MTEgLTEwMFQ1NTcgLTE2NVQ0ODEgLTE5NFEzOTkgLTE5NCAzOTkgLTg3Vi04MFpNNjM2IDQ2OFE2MzYgNTIzIDYyMSA1NjRUNTgwIDYyNVQ1MzAgNjU1VDQ3NyA2NjVRNDI5IDY2NSAzNzkgNjQwUTI3NyA1OTEgMjE1IDQ2NFQxNTMgMjE2UTE1MyAxMTAgMjA3IDU5UTIzMSAzOCAyMzYgMzhWNDZRMjM2IDg2IDI2OSAxMjBUMzQ3IDE1NVEzNzIgMTU1IDM5MCAxNDRUNDE3IDExNFQ0MjkgODJUNDM1IDU1TDQ0OCA2NFE1MTIgMTA4IDU1NyAxODVUNjE5IDMzNFQ2MzYgNDY4Wk0zMTQgMThRMzYyIDE4IDQwNCAzOUw0MDMgNDlRMzk5IDEwNCAzNjYgMTE1UTM1NCAxMTcgMzQ3IDExN1EzNDQgMTE3IDM0MSAxMTdUMzM3IDExOFEzMTcgMTE4IDI5NiA5OFQyNzQgNTJRMjc0IDE4IDMxNCAxOFoiLz4mI3hhOzxwYXRoIHN0cm9rZS13aWR0aD0iMSIgaWQ9IkUxLU1KTUFJTi0zRCIgZD0iTTU2IDM0N1E1NiAzNjAgNzAgMzY3SDcwN1E3MjIgMzU5IDcyMiAzNDdRNzIyIDMzNiA3MDggMzI4TDM5MCAzMjdINzJRNTYgMzMyIDU2IDM0N1pNNTYgMTUzUTU2IDE2OCA3MiAxNzNINzA4UTcyMiAxNjMgNzIyIDE1M1E3MjIgMTQwIDcwNyAxMzNINzBRNTYgMTQwIDU2IDE1M1oiLz4mI3hhOzxwYXRoIHN0cm9rZS13aWR0aD0iMSIgaWQ9IkUxLU1KTUFUSEktNTUiIGQ9Ik0xMDcgNjM3UTczIDYzNyA3MSA2NDFRNzAgNjQzIDcwIDY0OVE3MCA2NzMgODEgNjgyUTgzIDY4MyA5OCA2ODNRMTM5IDY4MSAyMzQgNjgxUTI2OCA2ODEgMjk3IDY4MVQzNDIgNjgyVDM2MiA2ODJRMzc4IDY4MiAzNzggNjcyUTM3OCA2NzAgMzc2IDY1OFEzNzEgNjQxIDM2NiA2MzhIMzY0UTM2MiA2MzggMzU5IDYzOFQzNTIgNjM4VDM0MyA2MzdUMzM0IDYzN1EyOTUgNjM2IDI4NCA2MzRUMjY2IDYyM1EyNjUgNjIxIDIzOCA1MThUMTg0IDMwMlQxNTQgMTY5UTE1MiAxNTUgMTUyIDE0MFExNTIgODYgMTgzIDU1VDI2OSAyNFEzMzYgMjQgNDAzIDY5VDUwMSAyMDVMNTUyIDQwNlE1OTkgNTk4IDU5OSA2MDZRNTk5IDYzMyA1MzUgNjM3UTUxMSA2MzcgNTExIDY0OFE1MTEgNjUwIDUxMyA2NjBRNTE3IDY3NiA1MTkgNjc5VDUyOSA2ODNRNTMyIDY4MyA1NjEgNjgyVDY0NSA2ODBRNjk2IDY4MCA3MjMgNjgxVDc1MiA2ODJRNzY3IDY4MiA3NjcgNjcyUTc2NyA2NTAgNzU5IDY0MlE3NTYgNjM3IDczNyA2MzdRNjY2IDYzMyA2NDggNTk3UTY0NiA1OTIgNTk4IDQwNFE1NTcgMjM1IDU0OCAyMDVRNTE1IDEwNSA0MzMgNDJUMjYzIC0yMlExNzEgLTIyIDExNiAzNFQ2MCAxNjdWMTgzUTYwIDIwMSAxMTUgNDIxUTE2NCA2MjIgMTY0IDYyOFExNjQgNjM1IDEwNyA2MzdaIi8+JiN4YTs8cGF0aCBzdHJva2Utd2lkdGg9IjEiIGlkPSJFMS1NSk1BSU4tRDciIGQ9Ik02MzAgMjlRNjMwIDkgNjA5IDlRNjA0IDkgNTg3IDI1VDQ5MyAxMThMMzg5IDIyMkwyODQgMTE3UTE3OCAxMyAxNzUgMTFRMTcxIDkgMTY4IDlRMTYwIDkgMTU0IDE1VDE0NyAyOVExNDcgMzYgMTYxIDUxVDI1NSAxNDZMMzU5IDI1MEwyNTUgMzU0UTE3NCA0MzUgMTYxIDQ0OVQxNDcgNDcxUTE0NyA0ODAgMTUzIDQ4NVQxNjggNDkwUTE3MyA0OTAgMTc1IDQ4OVExNzggNDg3IDI4NCAzODNMMzg5IDI3OEw0OTMgMzgyUTU3MCA0NTkgNTg3IDQ3NVQ2MDkgNDkxUTYzMCA0OTEgNjMwIDQ3MVE2MzAgNDY0IDYyMCA0NTNUNTIyIDM1NUw0MTggMjUwTDUyMiAxNDVRNjA2IDYxIDYxOCA0OFQ2MzAgMjlaIi8+JiN4YTs8cGF0aCBzdHJva2Utd2lkdGg9IjEiIGlkPSJFMS1NSk1BVEhJLTQxIiBkPSJNMjA4IDc0UTIwOCA1MCAyNTQgNDZRMjcyIDQ2IDI3MiAzNVEyNzIgMzQgMjcwIDIyUTI2NyA4IDI2NCA0VDI1MSAwUTI0OSAwIDIzOSAwVDIwNSAxVDE0MSAyUTcwIDIgNTAgMEg0MlEzNSA3IDM1IDExUTM3IDM4IDQ4IDQ2SDYyUTEzMiA0OSAxNjQgOTZRMTcwIDEwMiAzNDUgNDAxVDUyMyA3MDRRNTMwIDcxNiA1NDcgNzE2SDU1NUg1NzJRNTc4IDcwNyA1NzggNzA2TDYwNiAzODNRNjM0IDYwIDYzNiA1N1E2NDEgNDYgNzAxIDQ2UTcyNiA0NiA3MjYgMzZRNzI2IDM0IDcyMyAyMlE3MjAgNyA3MTggNFQ3MDQgMFE3MDEgMCA2OTAgMFQ2NTEgMVQ1NzggMlE0ODQgMiA0NTUgMEg0NDNRNDM3IDYgNDM3IDlUNDM5IDI3UTQ0MyA0MCA0NDUgNDNMNDQ5IDQ2SDQ2OVE1MjMgNDkgNTMzIDYzTDUyMSAyMTNIMjgzTDI0OSAxNTVRMjA4IDg2IDIwOCA3NFpNNTE2IDI2MFE1MTYgMjcxIDUwNCA0MTZUNDkwIDU2Mkw0NjMgNTE5UTQ0NyA0OTIgNDAwIDQxMkwzMTAgMjYwTDQxMyAyNTlRNTE2IDI1OSA1MTYgMjYwWiIvPiYjeGE7PHBhdGggc3Ryb2tlLXdpZHRoPSIxIiBpZD0iRTEtTUpNQVRISS00QyIgZD0iTTIyOCA2MzdRMTk0IDYzNyAxOTIgNjQxUTE5MSA2NDMgMTkxIDY0OVExOTEgNjczIDIwMiA2ODJRMjA0IDY4MyAyMTcgNjgzUTI3MSA2ODAgMzQ0IDY4MFE0ODUgNjgwIDUwNiA2ODNINTE4UTUyNCA2NzcgNTI0IDY3NFQ1MjIgNjU2UTUxNyA2NDEgNTEzIDYzN0g0NzVRNDA2IDYzNiAzOTQgNjI4UTM4NyA2MjQgMzgwIDYwMFQzMTMgMzM2UTI5NyAyNzEgMjc5IDE5OFQyNTIgODhMMjQzIDUyUTI0MyA0OCAyNTIgNDhUMzExIDQ2SDMyOFEzNjAgNDYgMzc5IDQ3VDQyOCA1NFQ0NzggNzJUNTIyIDEwNlQ1NjQgMTYxUTU4MCAxOTEgNTk0IDIyOFQ2MTEgMjcwUTYxNiAyNzMgNjI4IDI3M0g2NDFRNjQ3IDI2NCA2NDcgMjYyVDYyNyAyMDNUNTgzIDgzVDU1NyA5UTU1NSA0IDU1MyAzVDUzNyAwVDQ5NCAtMVE0ODMgLTEgNDE4IC0xVDI5NCAwSDExNlEzMiAwIDMyIDEwUTMyIDE3IDM0IDI0UTM5IDQzIDQ0IDQ1UTQ4IDQ2IDU5IDQ2SDY1UTkyIDQ2IDEyNSA0OVExMzkgNTIgMTQ0IDYxUTE0NyA2NSAyMTYgMzM5VDI4NSA2MjhRMjg1IDYzNSAyMjggNjM3WiIvPiYjeGE7PHBhdGggc3Ryb2tlLXdpZHRoPSIxIiBpZD0iRTEtTUpNQVRISS00RCIgZD0iTTI4OSA2MjlRMjg5IDYzNSAyMzIgNjM3UTIwOCA2MzcgMjAxIDYzOFQxOTQgNjQ4UTE5NCA2NDkgMTk2IDY1OVExOTcgNjYyIDE5OCA2NjZUMTk5IDY3MVQyMDEgNjc2VDIwMyA2NzlUMjA3IDY4MVQyMTIgNjgzVDIyMCA2ODNUMjMyIDY4NFEyMzggNjg0IDI2MiA2ODRUMzA3IDY4M1EzODYgNjgzIDM5OCA2ODNUNDE0IDY3OFE0MTUgNjc0IDQ1MSAzOTZMNDg3IDExN0w1MTAgMTU0UTUzNCAxOTAgNTc0IDI1NFQ2NjIgMzk0UTgzNyA2NzMgODM5IDY3NVE4NDAgNjc2IDg0MiA2NzhUODQ2IDY4MUw4NTIgNjgzSDk0OFE5NjUgNjgzIDk4OCA2ODNUMTAxNyA2ODRRMTA1MSA2ODQgMTA1MSA2NzNRMTA1MSA2NjggMTA0OCA2NTZUMTA0NSA2NDNRMTA0MSA2MzcgMTAwOCA2MzdROTY4IDYzNiA5NTcgNjM0VDkzOSA2MjNROTM2IDYxOCA4NjcgMzQwVDc5NyA1OVE3OTcgNTUgNzk4IDU0VDgwNSA1MFQ4MjIgNDhUODU1IDQ2SDg4NlE4OTIgMzcgODkyIDM1UTg5MiAxOSA4ODUgNVE4ODAgMCA4NjkgMFE4NjQgMCA4MjggMVQ3MzYgMlE2NzUgMiA2NDQgMlQ2MDkgMVE1OTIgMSA1OTIgMTFRNTkyIDEzIDU5NCAyNVE1OTggNDEgNjAyIDQzVDYyNSA0NlE2NTIgNDYgNjg1IDQ5UTY5OSA1MiA3MDQgNjFRNzA2IDY1IDc0MiAyMDdUODEzIDQ5MFQ4NDggNjMxTDY1NCAzMjJRNDU4IDEwIDQ1MyA1UTQ1MSA0IDQ0OSAzUTQ0NCAwIDQzMyAwUTQxOCAwIDQxNSA3UTQxMyAxMSAzNzQgMzE3TDMzNSA2MjRMMjY3IDM1NFEyMDAgODggMjAwIDc5UTIwNiA0NiAyNzIgNDZIMjgyUTI4OCA0MSAyODkgMzdUMjg2IDE5UTI4MiAzIDI3OCAxUTI3NCAwIDI2NyAwUTI2NSAwIDI1NSAwVDIyMSAxVDE1NyAyUTEyNyAyIDk1IDFUNTggMFE0MyAwIDM5IDJUMzUgMTFRMzUgMTMgMzggMjVUNDMgNDBRNDUgNDYgNjUgNDZRMTM1IDQ2IDE1NCA4NlExNTggOTIgMjIzIDM1NFQyODkgNjI5WiIvPiYjeGE7PHBhdGggc3Ryb2tlLXdpZHRoPSIxIiBpZD0iRTEtTUpNQVRISS01NCIgZD0iTTQwIDQzN1EyMSA0MzcgMjEgNDQ1UTIxIDQ1MCAzNyA1MDFUNzEgNjAyTDg4IDY1MVE5MyA2NjkgMTAxIDY3N0g1NjlINjU5UTY5MSA2NzcgNjk3IDY3NlQ3MDQgNjY3UTcwNCA2NjEgNjg3IDU1M1Q2NjggNDQ0UTY2OCA0MzcgNjQ5IDQzN1E2NDAgNDM3IDYzNyA0MzdUNjMxIDQ0Mkw2MjkgNDQ1UTYyOSA0NTEgNjM1IDQ5MFQ2NDEgNTUxUTY0MSA1ODYgNjI4IDYwNFQ1NzMgNjI5UTU2OCA2MzAgNTE1IDYzMVE0NjkgNjMxIDQ1NyA2MzBUNDM5IDYyMlE0MzggNjIxIDM2OCAzNDNUMjk4IDYwUTI5OCA0OCAzODYgNDZRNDE4IDQ2IDQyNyA0NVQ0MzYgMzZRNDM2IDMxIDQzMyAyMlE0MjkgNCA0MjQgMUw0MjIgMFE0MTkgMCA0MTUgMFE0MTAgMCAzNjMgMVQyMjggMlE5OSAyIDY0IDBINDlRNDMgNiA0MyA5VDQ1IDI3UTQ5IDQwIDU1IDQ2SDgzSDk0UTE3NCA0NiAxODkgNTVRMTkwIDU2IDE5MSA1NlExOTYgNTkgMjAxIDc2VDI0MSAyMzNRMjU4IDMwMSAyNjkgMzQ0UTMzOSA2MTkgMzM5IDYyNVEzMzkgNjMwIDMxMCA2MzBIMjc5UTIxMiA2MzAgMTkxIDYyNFExNDYgNjE0IDEyMSA1ODNUNjcgNDY3UTYwIDQ0NSA1NyA0NDFUNDMgNDM3SDQwWiIvPiYjeGE7PHBhdGggc3Ryb2tlLXdpZHRoPSIxIiBpZD0iRTEtTUpNQVRISS00NCIgZD0iTTI4NyA2MjhRMjg3IDYzNSAyMzAgNjM3UTIwNyA2MzcgMjAwIDYzOFQxOTMgNjQ3UTE5MyA2NTUgMTk3IDY2N1QyMDQgNjgyUTIwNiA2ODMgNDAzIDY4M1E1NzAgNjgyIDU5MCA2ODJUNjMwIDY3NlE3MDIgNjU5IDc1MiA1OTdUODAzIDQzMVE4MDMgMjc1IDY5NiAxNTFUNDQ0IDNMNDMwIDFMMjM2IDBIMTI1SDcyUTQ4IDAgNDEgMlQzMyAxMVEzMyAxMyAzNiAyNVE0MCA0MSA0NCA0M1Q2NyA0NlE5NCA0NiAxMjcgNDlRMTQxIDUyIDE0NiA2MVExNDkgNjUgMjE4IDMzOVQyODcgNjI4Wk03MDMgNDY5UTcwMyA1MDcgNjkyIDUzN1Q2NjYgNTg0VDYyOSA2MTNUNTkwIDYyOVQ1NTUgNjM2UTU1MyA2MzYgNTQxIDYzNlQ1MTIgNjM2VDQ3OSA2MzdINDM2UTM5MiA2MzcgMzg2IDYyN1EzODQgNjIzIDMxMyAzMzlUMjQyIDUyUTI0MiA0OCAyNTMgNDhUMzMwIDQ3UTMzNSA0NyAzNDkgNDdUMzczIDQ2UTQ5OSA0NiA1ODEgMTI4UTYxNyAxNjQgNjQwIDIxMlQ2ODMgMzM5VDcwMyA0NjlaIi8+JiN4YTs8L2RlZnM+JiN4YTs8ZyBzdHJva2U9ImN1cnJlbnRDb2xvciIgZmlsbD0iY3VycmVudENvbG9yIiBzdHJva2Utd2lkdGg9IjAiIHRyYW5zZm9ybT0ibWF0cml4KDEgMCAwIC0xIDAgMCkiIGFyaWEtaGlkZGVuPSJ0cnVlIj4mI3hhOyA8dXNlIHhsaW5rOmhyZWY9IiNFMS1NSk1BVEhJLTUxIiB4PSIwIiB5PSIwIi8+JiN4YTsgPHVzZSB4bGluazpocmVmPSIjRTEtTUpNQUlOLTNEIiB4PSIxMDY5IiB5PSIwIi8+JiN4YTsgPHVzZSB4bGluazpocmVmPSIjRTEtTUpNQVRISS01NSIgeD0iMjEyNSIgeT0iMCIvPiYjeGE7IDx1c2UgeGxpbms6aHJlZj0iI0UxLU1KTUFJTi1ENyIgeD0iMzExNSIgeT0iMCIvPiYjeGE7IDx1c2UgeGxpbms6aHJlZj0iI0UxLU1KTUFUSEktNDEiIHg9IjQxMTYiIHk9IjAiLz4mI3hhOyA8dXNlIHhsaW5rOmhyZWY9IiNFMS1NSk1BSU4tRDciIHg9IjUwODgiIHk9IjAiLz4mI3hhOyA8dXNlIHhsaW5rOmhyZWY9IiNFMS1NSk1BVEhJLTRDIiB4PSI2MDg5IiB5PSIwIi8+JiN4YTsgPHVzZSB4bGluazpocmVmPSIjRTEtTUpNQVRISS00RCIgeD0iNjc3MCIgeT0iMCIvPiYjeGE7IDx1c2UgeGxpbms6aHJlZj0iI0UxLU1KTUFUSEktNTQiIHg9Ijc4MjIiIHk9IjAiLz4mI3hhOyA8dXNlIHhsaW5rOmhyZWY9IiNFMS1NSk1BVEhJLTQ0IiB4PSI4NTI2IiB5PSIwIi8+JiN4YTs8L2c+JiN4YTs8L3N2Zz4=;" parent="x5VRXNIBZk1mZp0lyt7O-1" vertex="1"><mxGeometry x="260" y="68" width="520" height="51" as="geometry"/></mxCell></root></mxGraphModel></diagram></mxfile>